<svg width="358" height="268" viewBox="0 0 358 268" fill="none" xmlns="http://www.w3.org/2000/svg">
<path fill-rule="evenodd" clip-rule="evenodd" d="M156.973 117.066C153.791 119.368 154.298 123.898 155.255 127.189C156.666 132.035 159.475 136.521 162.68 140.388C168.365 147.247 178.016 154.95 186.912 148.928C194.834 143.564 199.831 132.742 201.556 123.626C202.089 120.809 202.799 116.612 200.294 114.494C196.591 111.363 190.059 111.932 185.589 112.336C182.644 112.601 179.804 113.502 176.894 113.079C170.135 112.096 162.611 112.986 156.973 117.066Z" fill="#20BF55"/>
<path fill-rule="evenodd" clip-rule="evenodd" d="M294.029 152.964C287.584 161.124 276.627 162.413 266.895 162.333C261.051 162.285 255.196 161.846 249.467 160.657C246.378 160.016 243.31 159.167 240.326 158.147C238.355 157.473 235.42 157.137 234.581 155.028C232.368 149.466 233.996 142.49 234.908 136.844C235.371 133.972 235.719 131.083 236.17 128.209C236.458 126.37 236.596 124.335 237.369 122.615C238.273 120.6 239.414 121.002 241.327 121.559C243.961 122.326 246.665 122.645 249.374 123.058C255.984 124.066 261.751 126.097 267.758 128.977C273.698 131.824 279.46 134.634 284.758 138.593C287.442 140.599 289.755 142.777 291.91 145.333C293.575 147.309 296.06 150.393 294.029 152.964ZM265.856 189.209C265.805 190.088 255.704 187.435 254.375 187.138C245.653 185.185 236.758 182.961 228.525 179.433C220.839 176.141 214.068 172.373 208.02 166.523C205.201 163.796 202.665 160.924 200.239 157.866C199.023 156.333 197.362 156.511 196.005 155.214C194.786 154.047 193.85 153.136 194.231 151.391C197.279 152.192 202.908 157.231 206.067 154.687C207.868 153.236 205.37 151.721 204.217 150.881C202.049 149.301 200.196 147.351 198.473 145.305C201.431 145.877 204.185 146.983 206.76 148.523C207.904 149.207 211.825 151.687 212.738 149.323C213.3 147.867 210.641 146.038 209.812 145.233C207.777 143.256 205.579 140.948 204.499 138.29C207.17 137.671 209.689 139.732 211.509 141.411C213.529 143.275 216.004 145.232 217.698 147.379C218.572 148.487 218.762 149.795 219.444 150.99C220.213 152.335 221.441 153.487 222.615 154.482C224.877 156.398 227.523 157.809 230.239 158.977C236.445 161.644 243.097 163.531 249.712 164.855C252.957 165.505 256.123 165.804 259.416 165.914C261.976 166 263.109 166.764 264.086 169.118C266.731 175.489 266.251 182.497 265.856 189.209ZM189.893 140.669C188.413 142.051 186.489 142.919 184.942 144.248C183.581 145.417 182.011 146.665 180.491 147.61C178.869 148.619 177.658 147.912 176.197 146.998C174.483 145.927 172.512 145.493 170.746 144.534C164.641 141.217 157.171 133.09 158.311 125.628C158.794 122.466 160.432 119.354 163.407 117.918C166.109 116.616 170.036 115.892 172.926 116.982C174.557 117.596 175.724 118.953 176.768 120.286C177.986 121.841 178.453 121.596 179.693 120.096C181.913 117.414 185.573 115.061 189.192 115.117C190.991 115.146 192.777 115.524 194.397 116.269C194.617 116.37 194.739 116.676 194.959 116.78C195.23 116.907 195.674 116.642 195.863 116.761C196.337 117.061 196.81 117.997 197.084 118.472C198.182 120.379 200.159 124.118 198.167 125.723C198.165 125.724 198.255 127.895 198.228 128.142C198.087 129.437 197.639 130.507 197.061 131.691C195.325 135.25 192.763 137.989 189.893 140.669ZM192.844 170.777C191.442 171.212 189.932 166.827 191.276 166.127C192.559 165.459 194.113 170.384 192.844 170.777ZM170.823 165.534C170.337 167.19 170.132 169.07 168.945 170.419C167.857 169.131 167.75 166.755 168.804 165.431C169.406 164.676 171.354 163.723 170.823 165.534ZM215.69 136.507C215.682 136.549 217.377 137.358 216.55 138.243C215.42 139.451 215.576 137.099 215.69 136.507ZM222.694 123.005C222.675 124.68 219.122 124.276 219.147 122.591C219.179 120.517 222.715 121.229 222.694 123.005ZM218.453 109.005C218.805 107.472 224.985 105.338 224.817 108.011C224.732 109.351 217.708 112.266 218.453 109.005ZM155.103 161.015C154.41 161.847 153.426 162.174 152.596 162.812C151.725 163.481 151.102 164.349 150.342 165.134C148.254 167.289 145.74 169.06 143.487 171.04C139.344 174.679 135.376 178.592 130.784 181.679C122.576 187.194 113.059 190.211 103.611 192.852C102.829 193.071 100.574 193.954 99.7995 193.296C98.9643 192.587 99.3889 190.09 99.4275 189.146C99.5841 185.276 100.036 181.36 99.9872 177.496C99.9669 175.908 99.5012 173.652 100.331 172.2C101.258 170.578 103.844 170.103 105.444 169.492C110.307 167.637 114.992 164.508 119.288 161.609C124.569 158.045 129.902 154.423 135.337 151.096C140.661 147.838 146.534 145.655 152.473 143.794C152.749 144.371 149.915 146.228 149.591 146.489C148.037 147.737 146.347 149.032 145.193 150.68C144.376 151.846 143.539 154.487 145.794 154.554C146.887 154.587 148.503 153.532 149.494 153.191C151.131 152.627 152.817 152.231 154.53 151.973C153.058 153.591 148.068 156.497 148.976 159.188C149.857 161.799 154.951 158.752 156.705 158.752C156.418 159.663 155.695 160.305 155.103 161.015ZM94.9123 168.303C91.6495 169.448 88.3052 170.099 84.9377 170.838C81.728 171.543 78.761 172.075 75.4735 171.662C70.9342 171.092 65.9111 169.216 65.3356 164.067C64.6532 157.967 68.9691 152.362 72.6752 147.986C77.1854 142.661 82.25 137.902 87.7388 133.591C93.2215 129.285 99.1391 125.489 105.339 122.284C110.055 119.846 115.382 118.366 120.369 116.536C121.318 116.188 123.942 114.965 124.83 115.979C125.547 116.798 124.571 118.164 124.244 118.925C123.606 120.409 123.519 121.903 123.354 123.496C122.619 130.61 121.734 137.723 121.326 144.868C121.213 146.859 121.013 148.942 121.13 150.935C121.194 152.039 121.769 153.444 121.386 154.522C120.65 156.594 117.276 157.965 115.488 158.89C112.288 160.546 108.899 161.782 105.665 163.367C102.114 165.107 98.6569 166.988 94.9123 168.303ZM140.163 122.074C141.059 121.952 142.4 121.708 143.199 122.287C144.24 123.043 143.967 124.093 143.005 124.641C142.246 125.074 140.468 125.192 139.718 124.799C138.44 124.13 138.656 122.281 140.163 122.074ZM145.123 138.549C144.399 139.752 141.754 140.541 141.985 138.296C142.182 136.373 146.456 136.333 145.123 138.549ZM144.141 104.655C145.305 105.105 147.416 105.49 147.761 106.983C148.082 108.374 146.762 108.282 145.81 107.899C145.026 107.585 141.536 104.631 144.141 104.655ZM326.426 157.693C325.746 155.053 326.264 152.131 325.889 149.428C325.525 146.807 324.87 144.399 323.931 141.929C321.851 136.462 319.468 131.54 316.097 126.742C309.748 117.706 302.381 109.746 293.486 103.146C284.704 96.63 274.98 91.3347 264.679 87.6235C253.755 83.6877 242.76 82.3179 231.24 81.5634C227.8 81.3385 224.364 81.0714 220.943 80.6377C218.443 80.3207 215.309 79.9302 212.837 80.6946C211.285 81.175 210.417 82.5267 212.109 83.4137C213.308 84.0427 214.878 84.1178 216.203 84.2849C214.603 89.359 211.999 94.4504 207.873 97.9441C203.845 101.355 198.455 102.525 193.371 103.39C190.614 103.859 187.528 104.221 184.728 104.019C182.958 103.892 181.577 103.074 180.863 104.893C180.368 106.157 180.133 107.545 179.48 105.636C178.707 103.379 178.328 103.393 175.924 102.752C171.008 101.442 165.373 100.246 161.084 97.4109C156.635 94.4698 155.087 89.7119 152.604 85.2817C151.989 84.1867 150.136 81.9704 151.083 80.7157C151.949 79.5683 154.765 79.6826 156.054 79.5629C157.415 79.4366 158.783 79.4313 160.149 79.3784C160.94 79.3479 162.531 79.6715 162.212 78.4923C161.732 76.7151 156.589 76.9429 155.311 76.914C152.936 76.8608 150.528 76.9157 148.165 77.1765C136.447 78.47 124.624 80.8618 113.284 84.0513C91.2841 90.2389 69.9767 101.641 53.9212 118.067C38.5095 133.834 33.6268 160.073 43.1014 180.206C48.0251 190.669 58.7107 194.967 69.069 198.438C74.5326 200.269 80.318 201.701 86.1259 201.356C88.913 201.19 91.5576 200.441 94.2759 199.877C95.4612 199.63 96.8103 199.238 98.0279 199.337C98.9498 199.412 99.8352 200.256 100.7 199.808C101.313 199.489 101.58 198.575 102.33 198.185C103.23 197.718 104.322 197.549 105.295 197.314C107.998 196.658 110.615 195.595 113.257 194.724C115.989 193.823 118.567 192.662 121.189 191.489C122.512 190.896 125.575 188.487 126.438 190.248C126.831 191.052 126.664 192.603 126.759 193.446C126.927 194.921 127.124 196.392 127.34 197.86C127.815 201.093 128.383 204.313 128.966 207.528C130.017 213.33 131.372 218.884 133.637 224.341C135.446 228.699 137.034 233.638 140.393 237.105C141.86 238.618 143.86 239.299 145.963 238.823C148.356 238.282 149.546 236.113 150.998 234.36C154.194 230.501 159.469 227.544 164.34 226.479C170.305 225.176 176.115 227.082 181.809 228.703C187.831 230.417 193.962 232.05 199.874 234.11C205.382 236.031 211.33 238.867 217.304 238.62C222.513 238.405 227.379 234.173 231.136 230.947C234.91 227.707 239.628 222.963 245.054 223.345C247.748 223.534 250.204 224.831 252.828 225.359C255.709 225.938 258.775 226.02 261.704 226.236C265.341 226.504 273.477 225.557 274.823 221.19C275.022 220.542 275.024 219.208 274.166 218.949C273.378 218.711 272.975 219.631 272.228 219.589C270.708 219.503 269.521 216.859 268.686 215.835C265.317 211.701 260.695 208.618 256.915 204.884C252.646 200.668 249.001 195.56 245.784 190.521C247.238 190.144 248.807 190.771 250.215 191.068C251.925 191.43 253.591 191.867 255.277 192.33C257.134 192.84 259.018 193.191 260.903 193.58C262.31 193.87 264.177 193.958 265.446 194.662C266.555 195.277 267.173 195.937 268.549 196.115C269.948 196.297 271.385 196.144 272.79 196.134C276.592 196.109 280.386 196.038 284.17 195.637C297.54 194.219 311.713 188.575 319.753 177.372C321.94 174.325 323.701 170.949 324.815 167.367C325.683 164.57 327.182 160.629 326.426 157.693Z" fill="black"/>
<path fill-rule="evenodd" clip-rule="evenodd" d="M201.022 28.6175C204.535 28.6672 207.829 29.7072 211.103 30.8894C213.982 31.929 217.051 32.8908 219.379 34.9658C223.567 38.6984 224.657 44.8787 225.343 50.1664C226.198 56.7645 223.353 62.3003 220.959 68.2697C218.72 73.8527 214.61 78.3754 209.726 81.8217C207.166 83.627 204.338 84.7166 201.379 85.6722C198.373 86.6427 195.462 87.9425 192.246 87.9375C187.362 87.9305 181.109 85.6151 179.029 80.8124C178.082 78.6257 179.004 78.2331 180.899 79.4216C183.649 81.1458 186.3 83.0065 189.513 83.7714C195.744 85.2552 203.208 82.9564 208.672 79.9234C214.134 76.8911 217.801 72.3361 220.251 66.6642C222.724 60.9422 223.685 55.3038 222.731 49.1351C221.923 43.9074 220.316 39.1324 215.596 36.2945C205.407 30.1692 191.68 30.6627 182.619 38.6231C181.377 39.7144 180.148 40.7763 178.868 41.8184C178.054 42.4807 177.095 43.2753 177.214 44.4208C177.315 45.4016 179.41 49.1835 176.887 48.0219C174.842 47.0799 173.73 45.2386 171.253 45.0107C168.616 44.7679 165.47 46.7899 164.681 49.3349C163.929 51.7632 165.27 55.0854 167.372 56.4782C168.674 57.3408 170.106 57.2076 171.583 57.1728C172.317 57.1554 174.359 56.9176 174.844 57.6916C175.703 59.0604 172.673 60.4992 171.695 60.802C169.316 61.5387 166.504 60.6717 165.136 58.5516C163.745 56.3963 162.794 53.9019 162.602 51.3342C162.419 48.874 162.978 46.3833 164.432 44.3633C165.979 42.2151 169.132 39.8067 171.958 40.5529C173.184 40.8768 174.17 42.1419 175.374 42.3822C176.134 42.5336 175.814 42.642 176.443 42.0798C176.843 41.7232 177.221 41.0651 177.59 40.6423C179.711 38.2115 181.808 35.6174 184.404 33.6718C189.059 30.1833 195.246 28.5356 201.022 28.6175ZM188.149 76.8101C188.699 75.522 189.711 77.8199 190.01 78.2042C190.602 78.9643 191.994 79.5556 191.934 80.6768C191.835 82.5276 189.307 82.1843 188.464 81.2188C187.505 80.1196 187.605 78.0823 188.149 76.8101ZM206.105 68.0469C207.469 70.1678 205.807 72.4572 204.729 74.3344C203.698 76.1292 202.741 78.1581 201.541 79.8455C199.549 82.647 195.215 79.6163 195.086 76.7371C194.988 74.533 196.552 75.4924 197.556 76.3156C198.59 77.1635 199.079 77.3746 200.163 76.4486C202.342 74.5848 203.321 71.4685 204.827 69.1088C205.126 68.641 205.667 68.3596 206.105 68.0469ZM209.992 68.7289C210.344 69.7545 209.606 72.4723 211.657 72.2006C212.79 72.0506 213.032 70.4278 213.627 69.7195C215.63 67.3385 215.016 71.8418 214.493 72.9689C213.339 75.4529 210.11 77.1645 208.508 74.0131C207.913 72.8408 207.915 71.3613 208.218 70.1011C208.383 69.4148 209.343 66.8348 209.992 68.7289ZM191.707 63.8712C191.526 65.0679 190.399 67.4522 191.775 68.3083C192.985 69.062 195.094 67.4254 196.026 66.7421C196.995 66.032 199.19 63.995 199.276 66.53C199.32 67.8221 198.024 69.3724 197.1 70.1168C195.127 71.7044 191.028 73.1284 189.574 70.1403C188.782 68.5125 189.215 66.1952 189.738 64.5549C190.163 63.2255 192.146 60.9806 191.707 63.8712ZM217.583 57.3192C218.386 58.2498 220.289 60.3347 219.254 61.66C218.044 63.209 216.079 60.3669 215.304 59.5759C214.606 58.8633 213.137 56.8341 213.763 55.7578C214.8 53.9767 216.878 56.5022 217.583 57.3192ZM204.964 53.3121C207.588 55.0186 204.138 56.2474 202.643 56.4001C200.834 56.5843 198.521 56.7065 196.859 55.8204C194.504 54.5644 195.289 52.6672 197.572 52.213C199.913 51.7477 202.927 51.9876 204.964 53.3121ZM170.847 47.8798C172.777 48.2546 174.981 48.7424 175.639 50.8424C176.317 53.0128 175.342 53.7331 173.371 53.2445C171.547 52.7923 168.823 52.3372 167.792 50.559C166.56 48.4346 169.058 47.5326 170.847 47.8798Z" fill="black"/>
<path fill-rule="evenodd" clip-rule="evenodd" d="M64.659 94.5155C64.0113 96.6031 60.7334 97.9877 59.0988 99.2567C53.3812 103.697 47.794 108.319 42.625 113.386C39.9421 116.016 37.9113 119.197 35.5847 122.123C35.0171 122.836 34.0114 124.435 32.8981 124.285C31.6766 124.121 31.4296 122.021 31.4686 121.104C31.602 117.977 34.4635 114.956 36.5042 112.803C38.7997 110.382 41.2539 108.022 43.7603 105.817C46.5199 103.39 49.5144 101.304 52.5661 99.2608C55.5627 97.2551 58.4358 94.9378 61.5522 93.1211C63.0202 92.2654 65.4579 91.9398 64.659 94.5155ZM264.522 74.6898C266.909 74.7649 269.238 75.5462 271.488 76.2715C276.439 77.8674 281.155 80.0812 285.805 82.3949C293.957 86.4506 301.802 91.3578 308.993 96.9371C310.496 98.1031 312.037 99.048 313.672 100.002C314.718 100.612 316.209 101.358 316.612 102.602C317.636 105.767 312.469 102.591 311.735 102.136L310.704 101.498C295.404 92.033 280.121 82.8369 262.815 77.4089C261.893 77.1197 261.606 76.2989 262.09 75.4852C262.614 74.6035 263.636 74.662 264.522 74.6898ZM63.9627 81.3125C63.852 82.276 62.7587 82.4952 62.0213 82.8044C59.2698 83.958 56.4497 84.9418 53.7057 86.1145C48.6128 88.291 43.9357 91.4496 38.6199 93.1013C37.4051 93.4795 37.2259 92.2557 37.5511 91.423C37.9133 90.4936 39.0013 89.841 39.7881 89.3034C42.058 87.7513 44.6323 86.6355 47.153 85.5574C49.6521 84.4877 52.2252 83.6786 54.7874 82.782C57.1688 81.9484 59.9327 80.3972 62.49 80.2826L62.6018 80.2772C63.4157 80.2361 64.0916 80.1813 63.9627 81.3125ZM268.866 66.6754C266.433 65.9923 268.732 64.4548 270.178 64.5628C271.791 64.6834 273.35 65.4436 274.88 65.9022C279.557 67.3039 283.893 68.8369 288.262 71.0127C288.914 71.3376 291.785 72.8775 289.886 73.5595C288.57 74.0319 285.496 72.0048 284.366 71.5186C279.4 69.3815 274.065 68.1346 268.866 66.6754Z" fill="black"/>
<path fill-rule="evenodd" clip-rule="evenodd" d="M171.871 71.6521C172.175 70.7613 175.937 61.0248 174.464 60.7311C172.905 60.4198 170.82 66.0689 170.368 67.0895C168.697 70.8591 167.707 74.9036 166.932 78.947C166.392 81.7623 165.918 84.6464 166.107 87.5248C166.252 89.7368 167.167 90.0716 168.676 91.4271C168.676 84.7083 169.699 78.0113 171.871 71.6521Z" fill="black"/>
</svg>
