<svg width="482" height="361" viewBox="0 0 482 361" fill="none" xmlns="http://www.w3.org/2000/svg">
<path fill-rule="evenodd" clip-rule="evenodd" d="M164.746 166.453C166.224 181.354 167.702 196.256 169.18 211.157C177.226 206.572 185.273 201.987 193.319 197.402V231.35V240.273C193.319 241.063 192.85 243.775 193.319 244.459C193.717 245.039 196.666 245.055 197.363 245.153C201.913 245.789 206.473 246.355 211.04 246.859C223.076 248.186 235.959 250.088 248.041 248.562C258.543 247.237 268.725 243.506 278.32 239.166C281.689 237.642 285.011 236.011 288.271 234.268C288.962 233.898 291.471 233.026 291.847 232.274C292.154 231.659 291.434 229.5 291.337 228.854C290.932 226.131 290.527 223.408 290.121 220.686L284.458 182.664L295.156 193.332C295.994 194.168 297.585 196.54 298.745 196.911C299.595 197.182 301.701 196.342 302.541 196.18C308.598 195.015 314.656 193.849 320.713 192.683C322.124 192.412 325.305 192.422 326.494 191.571C327.135 191.112 327.165 190.179 327.391 189.295C328.868 183.515 330.346 177.735 331.823 171.955C332.089 170.914 333.574 167.632 333.197 166.583C333.061 166.207 332.406 165.951 332.005 165.705C322.863 160.13 313.72 154.553 304.578 148.977C299.57 145.922 294.562 142.868 289.554 139.813C287.456 138.533 284.879 136.228 282.502 135.512C281.026 135.067 278.879 135.401 277.352 135.357C274.249 135.268 271.146 135.18 268.043 135.092C267.558 135.078 265.856 134.732 265.447 135.018C265.107 135.256 265.248 135.587 265.136 136.154C264.863 137.538 264.861 139.031 264.727 140.437C264.619 141.565 264.833 143.633 264.324 144.654C263.999 145.306 264.412 145.046 263.972 145.362C263.448 145.737 261.776 145.616 261.153 145.689C258.112 146.041 255.071 146.394 252.03 146.747C248.415 147.166 244.76 147.953 241.128 147.59C235.622 147.041 229.685 147.068 224.278 145.91C222.873 145.609 222.367 144.818 221.283 143.738C219.167 141.628 217.073 139.494 214.935 137.407C213.886 136.384 214.335 136.557 213.255 136.946C211.9 137.431 210.527 138.605 209.301 139.35C204.605 142.207 199.908 145.064 195.212 147.92L166.54 165.361C165.942 165.725 165.344 166.089 164.746 166.453Z" fill="#20BF55"/>
<path fill-rule="evenodd" clip-rule="evenodd" d="M438.985 168.305C433.074 190.713 421.187 215.146 397.239 222.288C391.416 224.024 385.752 225.335 379.704 224.674C379.129 224.611 378.647 224.692 378.1 224.702C377.119 224.721 377.966 225.073 376.866 224.734C376.008 224.469 375.205 223.808 374.312 223.515C371.935 222.739 369.402 222.589 366.987 221.962C361.052 220.42 354.937 218.517 349.186 216.39C346.479 215.389 343.99 213.995 341.444 212.654C338.855 211.292 336.111 210.445 333.493 209.195C331.424 208.207 327.88 206.92 326.425 205.067C324.874 203.09 327.02 198.882 327.633 196.781C329.719 189.632 332.203 182.587 333.771 175.295C339.184 181.56 346.697 185.44 354.475 187.942C358.695 189.3 363.037 190.281 367.426 190.896C371.412 191.453 375.711 192.128 379.706 191.336C382.722 190.739 386.507 189.354 388.661 187.056C389.429 186.235 390.352 184.731 389.921 183.539C389.374 182.026 387.781 182.738 386.919 181.609C386.168 180.625 386.286 178.325 386.047 177.127C385.623 175.007 385.042 172.945 384.332 170.905C382.954 166.943 381.237 162.972 380.826 158.756C380.468 155.098 381.302 151.639 383.129 148.465C383.993 146.965 386.161 142.883 388.277 143.053C390.601 143.239 387.467 153.02 387.365 155.015C386.959 162.924 388.021 171.352 392.085 178.284C393.641 180.939 395.892 184.029 399.214 184.358C402.734 184.706 405.572 181.941 407.247 179.143C411.335 172.318 409.274 162.952 407.204 155.798C404.665 147.021 398.037 140.971 393.847 133.088C400.103 133.716 403.454 137.685 406.664 142.721C410.2 148.265 412.952 154.921 414.309 161.371C414.994 164.63 414.521 167.903 414.525 171.194C414.527 172.288 414.526 176.321 416.312 176.162C418.219 175.993 418.874 171.443 419.154 170.056C419.797 166.872 420.493 163.689 421.051 160.49C422.04 154.83 422.479 149.033 423.663 143.413C423.863 142.462 424.261 139.826 425.686 140.538C426.784 141.086 426.607 145.163 426.648 146.111C426.746 148.446 426.885 150.781 426.904 153.119C426.932 156.584 426.24 160.17 426.579 163.614C426.801 165.864 428.01 168.35 429.51 165.316C430.996 162.306 431.299 158.553 432.128 155.317C432.999 151.919 433.898 148.471 435.746 145.453C436.259 144.616 436.81 143.287 437.949 143.68C438.777 143.967 439.388 145.926 439.644 146.618C440.798 149.743 440.602 153.218 440.53 156.489C440.44 160.498 440.01 164.418 438.985 168.305ZM323.733 174.12C323.418 174.018 322.076 173.891 321.743 173.862C321.353 173.828 321.796 173.11 320.852 173.315C321.034 173.765 321.357 174.066 321.823 174.217C320.404 174.697 319.357 173.513 318.386 173.36C317.458 173.215 317.419 173.36 316.502 174.339C315.509 173.13 315.695 173.885 314.879 173.885C314.582 173.886 314.569 174.334 314.086 174.28C313.664 174.233 313.62 173.594 313.37 173.518C312.015 173.109 310.622 175.169 309.086 173.382C308.713 175.241 304.449 172.912 302.808 173.239C301.088 173.581 301.83 174.197 300.44 173.144C299.115 172.141 299.485 172.807 297.944 173.628C297.98 173.609 297.074 174.22 297.159 174.23C296.092 174.105 296.153 173.004 294.802 173.062C293.373 173.125 292.762 174.243 291.454 172.867C291.169 173.898 291.111 173.453 290.44 173.713C290.071 173.801 289.749 173.704 289.472 173.423C289.388 173.707 289.204 173.881 288.919 173.945C288.189 174.01 286.818 174.112 286.155 173.761C285.16 173.233 285.96 173.031 285.27 172.438C284.96 174.073 284.282 173.725 282.852 173.878C281.762 173.994 281.522 173.66 280.48 173.498C279.454 173.338 278.128 173.735 277.127 173.905C276.713 173.975 276.16 174.263 275.74 174.162C275.36 174.071 275.198 173.777 274.971 173.7C274.697 173.607 274.755 173.367 274.28 173.251C273.953 173.171 273.366 173.478 273.039 173.531C270.705 173.909 268.464 173.913 266.238 172.997C267.334 174.92 263.676 173.882 263.023 173.085C262.208 174.361 261.222 173.46 259.578 173.56C257.995 173.656 255.615 174.14 254.974 172.171C254.848 172.571 253.95 173.732 253.593 173.91C252.555 174.423 252.432 173.664 251.467 173.354C250.154 172.933 250.428 173.732 249.614 173.895C248.24 174.17 247.497 173.203 246.283 172.69C246.231 173.488 246.205 173.98 245.514 174.477C244.901 172.25 242.716 174.659 243.091 171.683C242.259 172.224 241.089 172.639 240.853 173.733C242.243 173.35 241.001 174.258 240.943 174.288C240.759 174.384 240.138 173.514 239.994 173.391C239.954 173.802 239.916 174.212 239.876 174.623C239.322 174.346 238.802 173.851 238.353 173.603C237.948 173.38 238.528 172.914 237.844 172.882C237.483 172.865 237.107 173.645 236.728 173.712C236.149 173.813 236.427 172.984 236.185 173.012C235.816 173.054 235.214 173.593 234.935 173.583C234.02 173.549 234.639 173.124 233.941 172.929C232.693 172.58 232.773 173.395 231.876 173.689C229.823 174.362 230.03 171.265 227.941 173.33C227.442 173.825 227.12 174.588 226.436 174.545C225.018 174.456 225.516 172.778 225.804 171.957C226.102 172.103 220.625 174.913 220.669 174.803C220.703 174.129 221.564 173.609 220.795 173.011C220.166 174.36 219.503 174.383 218.052 174.634C217.346 174.756 217.207 174.919 216.453 174.627C215.971 174.44 215.648 173.674 215.17 173.632C215.235 173.638 214.357 174.305 214.223 174.365C213.431 174.722 212.93 174.317 212.16 174.464C211.504 174.589 211.245 175.146 210.592 174.994C209.721 174.79 210.233 173.751 209.034 174.041C208.624 174.14 208.377 174.929 207.731 175.092C206.725 175.346 205.491 174.872 204.428 175.119C203.583 175.316 202.956 175.399 202.218 175.44C201.621 175.474 201.867 175.01 200.769 175.557L200.303 174.385C199.753 174.879 199.203 175.372 198.654 175.866C198.549 175.424 198.483 174.976 198.455 174.522C197.636 175.342 196.603 175.482 195.501 175.555C194.308 175.635 193.418 175.895 192.257 176.113C191.89 176.182 190.945 176.291 190.643 176.163C190.687 176.182 190.078 175.929 190.262 175.977C190.182 175.816 190.109 175.653 190.041 175.487C189.939 175.024 189.605 175.004 189.042 175.425C188.751 175.381 188.186 174.999 187.896 175.093C187.147 175.335 187.249 175.916 186.502 175.831C186.018 175.775 185.771 175.061 185.267 175.012C184.495 174.938 183.827 175.801 183.131 175.989C185.245 175.416 180.39 175.86 181.899 175.9C180.91 175.874 179.882 175.825 178.967 176.268C178.462 175.923 179.076 175.229 178.565 174.944C178.102 174.685 178.066 175.368 178.012 175.384C178.304 175.301 178.158 175.883 177.866 175.986C176.955 176.309 176.226 175.489 176.179 174.676C175.405 175.839 175.188 175.371 174.049 175.443C172.927 175.514 171.959 176.102 170.836 176.091C168.614 176.07 167.107 175.299 166.366 173.318C168.733 173.606 171.115 172.087 173.429 172.445C174.19 172.562 174.665 173.133 175.331 173.031C176.152 172.907 176.725 172.012 177.778 171.916C180.1 171.704 182.389 171.911 184.727 171.555C187.52 171.13 190.434 170.879 193.254 171.085C195.433 171.245 197.197 170.413 199.406 170.253C202.263 170.046 205.143 170.009 208.005 169.859C210.945 169.705 214.109 169.236 217.041 169.387C217.957 169.433 218.745 169.523 219.653 169.468C220.037 169.445 220.401 169.185 220.804 169.224C221.329 169.274 221.555 169.811 222.099 169.792C223.025 169.761 224.014 168.999 225.114 168.978C226.923 168.944 228.724 168.948 230.538 168.845C232.134 168.755 233.845 168.383 235.434 168.403C236.556 168.417 236.832 169.371 237.486 169.469C238.661 169.646 244.604 166.269 245.117 169.3C248.211 167.185 252.361 168.976 255.804 168.579C260.229 168.068 264.734 168.523 269.188 168.341C273.721 168.156 278.384 168.328 282.898 168.754C284.768 168.931 286.575 169.097 288.45 168.99C289.286 168.942 290.253 168.729 291.089 168.921C291.291 168.968 292.841 170.049 292.649 170.08C293.496 169.321 292.923 169.209 294.413 169.17C295.561 169.14 296.647 169.388 297.789 169.455C299.839 169.577 301.904 169.293 303.949 169.355C305.657 169.408 307.326 169.659 309.043 169.672C310.893 169.685 313.078 169.737 314.417 171.227C314.276 170.759 314.135 170.291 313.993 169.824C316.059 169.985 318.1 170.721 320.188 170.377C319.66 170.882 319.123 171.295 318.922 172.036C320.048 171.893 320.81 171.109 321.996 171.102C322.991 171.096 323.198 171.595 324.25 170.951C324.379 171.74 324.508 172.53 324.638 173.319C326.094 172.977 325.138 171.893 325.245 170.916C326.428 171.271 327.43 170.863 326.964 172.563C326.604 173.873 324.966 174.519 323.733 174.12ZM321.687 188.718C321.18 190.142 316.789 189.328 315.75 189.178C314.408 188.984 312.874 188.676 311.638 188.523C311.49 188.326 311.312 188.159 311.105 188.021C310.95 188.237 310.753 188.391 310.516 188.481C309.948 188.605 309.946 189.19 309.201 189.06C309.166 189.926 309.768 189.434 310.23 189.748C309.067 190.526 309.599 189.63 308.947 189.644C308.785 189.416 308.56 189.326 308.272 189.375C307.904 189.47 307.566 189.627 307.256 189.846C306.966 190.152 306.717 190.168 306.51 189.894C306.311 189.695 306.069 189.572 305.783 189.525C304.638 189.711 304.318 190.218 303.029 190.135C301.187 190.017 299.194 190.502 297.381 190.246C296.258 190.088 294.38 188.325 293.87 190.044C293.093 188.77 291.856 187.903 291.112 186.601C294.577 186.401 298.04 186.163 301.508 186.038C304.544 185.929 307.865 186.27 310.702 186.127C313.36 185.993 316.175 185.7 318.888 185.457C321.765 185.201 322.716 185.831 321.687 188.718ZM231.3 188.928C232.558 189.276 233.756 188.488 234.977 188.737C235.38 188.819 236.215 189.552 236.398 189.567C236.734 189.594 237.722 188.873 238.145 188.777C240.826 188.168 244.072 188.233 246.751 188.607C248.171 188.805 248.389 188.156 249.628 187.841C250.916 187.513 252.747 187.766 254.103 187.675C257.294 187.462 260.483 187.614 263.652 187.381C266.906 187.142 270.144 187.012 273.399 186.845C275.616 186.731 280.944 185.468 282.782 187.112C284.298 188.467 282.345 190.82 280.829 191.357C279.696 191.758 279.153 190.913 278.311 190.994C277.353 191.085 277.687 192.216 276.832 191.168C276.302 192.21 272.97 191.766 272.016 191.835C269.935 191.985 268.175 192.402 266.759 190.464C266.855 191.022 266.951 191.582 267.047 192.14C265.169 191.138 263.154 191.459 261.523 191.809C260.716 191.981 258.239 193.177 257.364 192.661C256.763 192.307 257.823 191.7 256.808 191.397C256.276 191.239 255.357 192.121 254.707 192.077C252.908 191.953 253.419 190.745 251.652 192.283C251.053 191.766 250.854 190.887 250.933 190.133C249.649 191.227 249.756 193.049 247.461 192.715C246.606 192.591 246.449 191.72 246.003 191.559C245.053 191.217 244.945 191.833 244.123 192.32C243.812 192.504 243.433 192.8 243.067 192.836C242.316 192.911 242.197 192.567 242.094 192.578C241.594 192.633 240.964 192.887 240.371 192.706C239.839 192.543 239.683 191.605 238.745 191.824C237.848 192.034 237.84 192.643 238.003 193.554C237.118 193.463 236.583 192.97 235.92 192.437C235.252 193.994 233.845 192.705 233.066 194.018C232.052 192.809 231.401 193.142 230.143 191.961C230.205 192.454 230.267 192.947 230.328 193.44C229.347 193.25 228.91 192.559 228.072 193.474C227.259 191.962 224.794 194.116 223.529 192.656C222.964 194.506 219.231 194.063 217.653 194.095C216.256 194.124 215.222 194.01 213.856 194.334C212.649 194.62 210.977 194.917 209.842 194.786C209.101 194.7 208.29 194.564 207.367 194.665C206.035 194.809 204.884 195.497 203.505 195.172C201.427 194.682 200.154 191.957 202.468 190.76C204.051 189.941 206.904 190.244 208.646 190.093C211.534 189.842 214.771 189.317 217.662 189.556C219.918 189.742 221.974 189.205 224.275 188.978C226.008 188.807 228.847 188.499 229.977 190.214C230.411 189.713 230.366 188.67 231.3 188.928ZM199.687 212.401C199.377 210.858 212.579 210.009 213.89 209.908C216.641 209.697 219.4 209.545 222.158 209.476C224.425 209.418 226.54 209.85 228.808 209.503C230.926 209.178 233.482 208.513 235.325 210.01C235.596 207.963 243.543 208.96 245.055 208.966C251.637 208.99 257.935 209.005 264.301 208.598C267.94 208.365 271.803 208.052 275.442 208.234C277.084 208.316 278.405 208.753 280.038 208.374C281.102 208.127 282.249 207.612 283.268 208.339C284.459 209.191 284.968 212.082 284.147 213.288C283.55 214.168 283.02 214.07 282.065 213.918C280.597 213.685 279.506 213.345 278.008 213.942C278.251 213.845 277.005 214.122 277.109 214.114C275.413 214.241 273.087 215.424 271.625 214.06C272.211 214.163 273.061 213.119 272.323 213.033C271.769 212.969 271.417 213.562 270.985 213.761C269.505 214.441 268.748 214.228 267.864 212.802C266.082 214.342 265.89 213.916 265.107 212.019C264.505 212.482 264.376 213.578 263.902 213.938C263.831 213.991 264.123 214.657 263.78 214.629C263.463 214.604 263.359 214.084 263.115 214.043C262.959 214.016 262.877 213.561 262.728 213.533C262.566 213.503 262.4 213.794 262.217 213.786C261.727 213.762 260.326 214.803 260.829 213.342C260.087 214.285 259.768 213.684 259.5 212.827C258.643 213.477 257.787 214.127 256.929 214.777C256.531 213.671 255.846 213.973 254.983 214.359C255.243 213.591 255.08 212.864 254.428 213.398C254.05 213.707 253.797 214.689 253.41 215.106C251.847 213.524 251.278 213.958 249.117 214.164C248.292 214.242 247.267 214.394 246.53 213.896C245.882 213.459 245.516 211.854 244.408 213.151C244.655 212.863 244.268 215.077 244.2 215.429C243.711 215.1 243.296 214.696 242.955 214.216C242.317 215.477 240.643 214.346 239.272 214.603C237.113 215.009 234.886 215.692 232.979 214.087C232.844 214.605 231.282 215.265 231.28 215.285C231.372 214.368 231.952 214.69 230.768 214.516C230.55 214.484 230.303 214.876 230.097 214.918C229.392 215.064 228.568 214.926 227.857 214.906C224.898 214.82 222.19 215.475 219.269 215.712C218.284 215.792 217.116 215.949 216.192 215.578C215.239 215.196 215.265 214.762 214.302 215.008C214.607 214.931 213.7 215.882 213.749 215.846C213.619 215.94 213.079 215.476 212.887 215.511C212.831 215.714 212.775 215.917 212.719 216.12C212.486 216.091 212.254 216.062 212.022 216.034C211.387 216.119 210.814 215.477 210.217 215.455C210.327 215.459 208.606 216.099 208.685 216.138C207.484 215.54 207.828 215.713 206.305 216.077C204.865 216.421 203.431 216.341 201.953 216.556C197.655 217.179 200.216 215.028 199.687 212.401ZM195.891 233.859C195.083 232.714 197.233 232.318 197.92 232.218C199.05 232.051 200.548 232.382 201.301 232.203C202.447 231.931 203.554 231.281 204.844 231.104C206.472 230.882 208.114 230.846 209.749 230.707C210.294 230.66 210.968 230.473 211.498 230.504C212.287 230.552 212.615 230.969 213.253 230.972C214.338 230.977 215.677 230.293 216.789 230.167C218.214 230.006 219.653 229.93 221.084 229.859C224.1 229.71 227.085 229.772 230.099 229.768C231.474 229.766 235.135 228.342 235.82 229.939C236.774 228.729 239.218 228.894 240.581 228.859C242.982 228.797 245.357 228.566 247.756 228.454C249.81 228.359 252.105 228.798 254.121 228.49C255.233 228.321 255.601 227.966 256.861 228.126C257.798 228.245 259.225 227.75 260.029 227.969C259.988 227.958 261.032 228.604 260.707 228.625C261.065 228.602 261.044 228.852 261.44 228.74C261.96 228.594 261.721 227.941 262.799 227.71C264.479 227.348 266.72 227.767 268.466 227.674C270.16 227.584 271.851 227.545 273.546 227.553C274.327 227.556 275.292 227.37 276.051 227.522C276.423 227.596 277.214 228.081 277.529 228.033C278.423 227.893 278.878 227.273 280.086 227.312C281.455 227.355 282.688 227.336 284.049 227.232C285.367 227.132 285.579 226.944 286.232 228.039C286.88 229.125 287.058 230.54 285.866 231.279C286.641 231.228 287.593 232.263 286.681 232.836C286.117 233.191 284.986 232.391 284.311 232.449C283.48 232.52 282.827 232.959 281.922 232.987C280.97 233.016 280.004 233.255 279.066 233.273C278.088 233.292 277.349 232.856 276.422 233.042C275.606 233.206 275.52 233.873 274.538 233.287C274.05 232.995 273.967 231.915 273.301 231.905C272.409 231.891 272.765 233.043 272.251 233.576C272.114 231.93 270.841 234.654 270.335 232.655C269.868 233.319 268.141 234.247 267.304 233.714C266.542 233.228 266.795 232.128 266.477 231.336C265.948 232.76 264.529 234.237 264.658 231.645C263.969 232.492 262.106 232.358 262.573 233.841C262.011 233.83 261.878 233.03 261.406 232.969C260.998 232.917 260.674 233.23 260.611 233.225C260.835 233.244 259.943 233.54 259.93 233.543C260.533 233.421 258.188 233.212 258.587 233.215C258.043 233.211 257.377 233.656 256.741 233.655C256.161 233.653 255.585 233.425 255.013 233.36C253.529 233.191 253.838 233.516 252.907 233.981C252.562 234.154 252.475 234.446 251.985 234.409C251.624 234.382 251.488 233.911 251.447 233.907C250.939 233.856 251.314 233.686 250.525 233.764C250.434 233.92 250.344 234.075 250.254 234.231C249.969 234.595 249.599 234.686 249.145 234.504C247.977 234.754 244.103 235.839 244.482 233.831C243.889 234.12 243.295 234.41 242.702 234.7C242.447 233.081 239.222 235.228 238.501 235.336C237.577 235.475 237.492 235.121 236.618 234.932C236.461 234.898 236.145 235.417 235.776 235.343C234.817 235.15 234.646 235.055 234.482 234.015C233.798 235.291 233.23 234.72 231.99 234.93C231.716 234.977 231.541 235.516 231.147 235.423C230.863 235.356 230.855 234.838 230.66 234.771C230.483 234.711 230.51 234.302 230.251 234.244C229.953 234.177 228.939 235.007 228.648 235.135C227.992 235.424 226.914 235.902 226.273 235.759C225.481 235.582 225.833 234.996 224.714 235.062C222.949 235.165 222.212 236.666 221.113 234.301C220.618 235.249 220.681 235.506 219.884 235.818C219.296 236.049 217.806 235.808 217.031 235.779C213.722 235.657 210.469 236.783 207.188 236.488C205.746 236.359 204.529 236.071 203.074 236.306C201.545 236.554 200.049 236.918 198.497 237.065C197.708 237.14 196.06 237.366 195.673 236.359C195.332 235.472 196.603 234.868 195.891 233.859ZM202.38 270.212C198.089 273.079 194.534 276.994 190.593 280.309C186.643 283.633 183.508 287.328 179.955 291.009C176.669 294.411 173.652 297.63 169.68 300.201C167.167 301.828 164.925 303.831 162.343 305.366C160.41 306.515 157.481 308.026 158.424 304.511C159.391 300.909 161.176 297.269 162.726 293.905C164.929 289.123 167.15 284.386 169.534 279.695C170.43 277.932 170.932 276.178 172.353 274.774C173.899 273.246 174.981 271.251 176.675 269.807C183.797 263.735 194.531 268.426 202.38 270.212ZM215.843 272.271C213.896 273.29 211.717 273.542 209.654 274.216C207.896 274.79 206.261 275.811 204.37 275.887C206.092 274.596 207.57 272.843 209.511 271.863C211.694 270.761 213.675 271.563 215.843 272.271ZM301.29 280.763C294.13 278.35 287.463 274.795 280.488 271.934C279.284 271.44 269.868 268.343 270.059 266.869C276.658 265.662 283.453 263.59 290.067 265.849C296.084 267.904 300.979 272.832 305.637 276.957C306.852 278.033 314.368 282.935 313.695 284.496C313.23 285.578 309.608 285.282 308.753 285.061C307.648 284.774 307.012 284.104 306.145 283.368C304.697 282.139 303.094 281.371 301.29 280.763ZM288.071 240.452C289.159 239.453 289.81 237.937 290.849 237.014C292.184 235.829 294.338 236.406 295.797 237.022C300.176 238.869 303.918 241.976 308.27 243.904C313.092 246.04 317.267 248.895 321.617 251.838C325.593 254.527 329.892 256.754 333.95 259.321C338.086 261.937 342.715 263.637 346.907 266.16C351.174 268.729 355.423 271.307 359.524 274.137C366.834 279.183 374.447 284.365 379.856 291.54C382.636 295.228 385.238 299.411 387.278 303.552C389.132 307.317 391.143 312.542 388.741 316.458C386.433 320.219 382.499 323.182 379.17 325.988C377.909 327.05 376.709 328.341 375.075 328.802C373.087 329.362 370.768 329.207 368.723 329.372C357.792 330.257 347.609 329.422 336.836 327.47C326.45 325.588 316.019 324.534 305.553 323.225C299.648 322.487 293.745 321.628 287.92 320.398C285.43 319.873 282.897 319.267 280.46 318.551C278.333 317.926 276.544 316.55 274.356 316.004C265.071 313.689 254.448 312.804 245.256 308.909C253.391 305.533 262.035 303.494 270.372 300.689C279.146 297.737 287.715 295.26 296.964 294.421C301.723 293.989 305.982 292.776 310.559 291.506C314.922 290.295 319.476 289.924 323.958 289.381C325.95 289.14 331.637 289.501 332.298 286.9C333.281 283.027 327.693 282.58 325.311 282.927C321.932 283.419 319.146 284.261 316.56 281.493C313.919 278.666 311.353 275.772 308.665 272.98C303.68 267.805 298.542 261.819 291.495 259.497C282.899 256.664 272.93 259.353 264.353 260.964C255.293 262.665 246.248 264.294 237.358 266.768C233.676 267.792 228.929 270.048 225.108 269.686C221.342 269.328 217.077 268.712 213.438 267.628C211.792 267.137 210.438 266.228 208.965 265.38C207.049 264.278 204.95 263.571 202.917 262.714C198.805 260.981 194.797 259.385 190.362 258.704C186.627 258.13 182.66 257.79 179.04 259.098C175.489 260.381 172.342 262.993 169.865 265.783C167.173 268.815 164.949 272.212 162.743 275.599C161.684 277.225 160.391 278.643 159.294 280.232C158.373 281.567 157.836 283.05 156.861 284.347C154.68 287.249 153.2 290.962 151.878 294.338C150.41 298.088 148.779 302.547 149.129 306.626C149.262 308.168 149.4 310.21 149.997 311.64C150.757 313.458 151.84 313.412 153.402 314.098C156.084 315.276 156.837 318.533 160.303 317.898C163.555 317.303 166.375 314.627 168.747 312.494C171.839 309.715 174.798 306.784 177.757 303.865C180.793 300.868 183.785 297.545 186.2 294.019C187.151 292.631 187.892 291.064 189.016 289.8C190.447 288.19 192.053 287.997 193.997 287.356C210.989 281.75 228.062 276.342 245.584 272.64C249.782 271.753 254.015 270.609 258.138 269.429C262.512 268.177 264.777 269.5 268.387 271.883C275.928 276.862 284.842 280.369 293.239 283.618C295.883 284.641 300.093 284.706 302.16 286.723C289.908 288.588 278.232 292.177 266.415 295.751C260.588 297.512 254.695 299.04 248.846 300.724C242.996 302.41 237.368 304.594 231.598 306.494C225.855 308.385 219.786 309.156 213.988 310.9C208.069 312.681 202.174 313.906 196.099 314.988C189.964 316.081 183.872 317.343 177.716 318.321C174.898 318.769 172.08 319.234 169.292 319.85C166.565 320.454 163.93 321.898 161.189 322.233C148.949 323.729 136.948 327.061 124.755 328.945C115.651 330.351 99.8127 332.313 93.909 323.192C87.9723 314.019 95.2556 303.319 101.754 296.76C105.793 292.684 110.331 289.096 115.092 285.905C120.188 282.489 125.091 278.801 130.187 275.39C141.721 267.672 154.228 261.377 166.62 255.175C172.568 252.198 178.315 249.006 184.101 245.739C186.973 244.117 188.562 246.734 190.832 248.512C192.617 249.911 195.896 253.359 198.394 251.765C198.49 252.339 198.586 252.913 198.682 253.488C199.414 253.154 200.146 252.822 200.878 252.488C201.369 253.776 201.312 254.575 202.685 255.251C203.528 255.667 205.327 256.166 206.131 255.435C206.295 255.943 206.459 256.451 206.623 256.959C207.326 256.906 207.462 254.898 207.594 254.428C208.798 256.184 210.464 257.652 212.581 258.149C212.591 258.034 212.237 256.591 212.252 256.582C212.922 256.173 213.767 257.926 214.122 258.302C215.299 259.546 216.001 259.353 217.301 258.349C217.396 258.451 217.836 259.598 217.9 259.577C218.182 259.488 218.716 258.472 218.775 258.379C218.693 259.716 221.278 259.985 222.191 259.698C221.986 259.307 221.781 258.915 221.577 258.523C224.756 258.099 226.004 261.473 229.056 261.301C231.312 261.174 229.503 260.682 230.779 259.717C231.895 258.874 232.094 260.718 232.203 260.659C232.416 260.437 232.581 260.181 232.698 259.892C233.11 261.472 236.397 262.888 236.057 260.292C237.35 260.808 238.268 261.665 239.699 261.846C241.438 262.066 243.296 261.698 245.03 261.554C248.769 261.243 252.293 260.482 255.663 258.771C257.661 257.757 259.788 256.837 261.666 255.614C263.237 254.59 266.219 251.482 268.312 252.82C267.776 251.241 270.299 252.704 270.379 250.671C270.785 250.976 271.19 251.281 271.595 251.586C271.838 251.054 271.77 250.215 272.096 249.752C272.543 249.115 272.761 249.49 273.142 249.131C273.569 248.731 273.941 247.657 274.452 247.351C274.979 247.037 275.599 247.412 276.165 247.137C277.029 246.718 280.741 242.63 280.113 246.133C281.709 245.591 280.478 245.096 280.678 244.034C281.078 241.905 282.053 243.437 283.024 243.623C284.614 243.927 284.582 242.614 285.469 241.66C286.278 240.789 287.8 240.399 287.276 238.886C287.874 239.208 288.002 239.839 288.071 240.452ZM192.228 194.985C190.976 196.378 190.038 195.782 188.645 195.578C188.496 195.079 188.241 195.01 187.881 195.371C187.469 195.608 187.025 195.764 186.55 195.838C185.408 196.119 184.222 195.999 183.105 196.425C183.137 196.052 183.53 195.388 183.278 195.008C182.103 195.819 181.375 196.336 179.932 196.351C178.763 196.363 176.712 195.472 175.741 196.538C175.711 196.123 175.681 195.708 175.652 195.293C175.176 195.529 174.763 195.846 174.411 196.243C174.344 195.628 174.307 195.163 173.9 194.666C173.128 196.252 172.282 196.289 170.782 195.683C170.992 195.768 169.28 194.766 169.346 195.044C168.805 192.767 177.348 192.955 178.245 192.865C180.485 192.639 182.725 192.508 184.969 192.301C187.096 192.106 188.684 191.775 190.157 193.547C189.5 190.987 195.708 191.114 192.228 194.985ZM94.2684 155.277C94.5038 159.148 95.3664 163.262 93.8592 166.988C92.6475 169.983 90.2304 173.365 87.6266 175.319C82.2951 179.321 77.776 174.424 77.034 169.043C76.2604 163.43 77.7937 156.572 82.6334 153.111C85.5251 151.044 88.3253 151.187 91.6548 151.867C92.4367 152.027 93.7061 151.965 94.1532 152.741C94.2581 152.923 94.164 155.273 94.2684 155.277ZM165.079 206.851C164.158 207.315 163.195 207.587 162.383 208.219C162.101 208.438 162.005 208.938 161.705 209.123C161.161 209.459 160.382 209.236 159.815 209.513C158.875 209.972 158.202 210.628 157.085 211.05C155.426 211.678 153.972 212.539 152.405 213.355C149.794 214.715 146.991 215.882 144.261 216.989C142.882 217.548 139.071 218.637 139.203 220.652C138.895 220.735 138.58 220.061 137.936 220.115C137.052 220.188 135.885 221.209 134.967 221.46C133.251 221.929 131.923 221.97 131.923 224.155C131.377 223.785 131.238 222.878 130.511 222.758C129.693 222.622 129.349 223.503 128.695 223.778C127.924 224.101 126.966 223.791 126.203 224.135C125.869 224.487 125.498 224.795 125.09 225.057C124.675 225.105 124.262 225.093 123.851 225.019C122.231 225.362 120.74 225.97 119.116 226.286C117.534 226.595 116.45 226.707 117.115 228.576C115.422 228.907 115.009 227.113 113.099 227.769C110.757 228.573 108.569 229.153 106.125 229.643C104.879 229.893 103.576 230.451 102.321 230.582C101.425 230.676 100.589 230.356 99.7073 230.455C98.6442 230.574 97.7899 231.066 96.69 231.084C95.6466 231.103 94.551 230.915 93.5264 230.732C93.6711 231.144 93.8523 231.539 94.07 231.918C93.3614 231.77 93.0345 230.919 92.4338 230.793C91.8035 230.661 91.2388 231.31 90.7139 231.167C90.4903 231.105 90.639 230.417 90.2392 230.285C89.8749 230.166 89.7212 230.307 89.3598 230.25C89.2392 230.232 87.7276 230.15 87.4868 230.277C87.0658 230.5 87.4917 230.917 87.408 230.979C85.9865 232.03 85.9693 231.463 85.3356 230.366C84.405 228.755 83.2828 229.771 81.5915 229.489C79.7066 229.175 78.2216 230.006 76.3663 229.888C74.3653 229.76 72.0136 228.265 70.2445 227.392C66.4241 225.506 62.6987 223.722 59.4903 220.866C53.2184 215.283 48.1158 208.418 45.1073 200.558C41.8748 192.114 41.2623 183.307 41.5218 174.349C41.6779 168.961 42.1097 163.577 42.96 158.252C43.5455 154.59 43.6681 148.081 47.8031 146.413C48.5141 154.989 46.2708 163.728 47.6854 172.248C48.1113 174.814 49.1503 178.234 51.1164 180.134C54.0273 182.948 54.7083 178.881 54.9717 176.634C55.4617 172.462 56.3721 168.312 57.0166 164.16C57.6606 160.009 58.1156 155.812 59.0112 151.704C59.3377 150.207 61.971 139.24 63.9036 139.759C63.5126 147.737 62.4742 155.578 62.4333 163.586C62.4171 166.798 62.129 170.19 62.5933 173.381C62.8321 175.022 64.3295 179.84 66.9047 179.439C69.2878 179.067 66.6678 175.673 66.4453 174.365C65.8559 170.9 66.6073 166.59 67.1568 163.152C68.1967 156.644 70.5168 149.98 74.3091 144.542C77.7056 139.673 82.9352 135.037 89.2353 135.896C91.9271 136.263 94.0271 136.931 95.3797 139.385C96.4408 141.311 100.621 143.5 98.1986 145.912C95.9932 148.108 92.4264 146.35 89.9748 145.827C86.9732 145.186 83.7565 145.957 81.2463 147.713C76.9394 150.726 74.4849 156.113 73.6838 161.165C72.604 167.977 75.4904 185.806 86.1214 181.811C93.1837 179.156 98.5029 169.606 97.9101 162.295C97.6723 159.368 96.5265 153.812 100.581 153.022C105.776 152.01 106.51 157.729 105.984 161.444C105.219 166.85 102.358 171.876 99.0854 176.15C96.233 179.874 92.9153 182.203 89.4829 185.28C88.4666 186.19 85.8747 188.238 86.31 189.932C86.7871 191.788 90.8606 192.316 92.4919 192.621C100.561 194.13 109.661 192.742 117.716 191.689C134.273 189.524 150.611 184.191 164.187 174.387C164.736 180.453 165.427 186.499 165.682 192.587C165.805 195.543 165.837 198.541 166.175 201.48C166.383 203.288 167.136 205.813 165.079 206.851ZM119.171 227.988C118.521 228.327 119.224 226.274 119.043 226.953C120.014 227.301 120.057 227.646 119.171 227.988ZM187.852 154.577C188.884 153.441 191.703 150.739 192.597 153.303C192.93 152.21 192.974 150.592 194.259 152.068C194.77 150.254 200.415 150.424 201.812 150.344C206.289 150.089 210.783 149.952 215.244 149.508C224.409 148.595 233.735 149.066 242.934 149.036C244.927 149.03 246.913 148.922 248.891 149.21C250.799 149.489 252.805 150.27 254.75 149.985C256.479 149.731 257.613 149.255 259.393 149.458C261.523 149.702 263.59 149.875 265.739 149.868C275.244 149.833 284.743 150.218 294.25 150.232C296.103 150.235 298.322 149.874 300.06 150.66C300.704 150.951 301.408 151.92 301.9 152.027C302.464 152.148 302.129 151.27 302.883 151.667C303.894 152.198 303.112 153.83 302.444 154.089C302.844 153.934 301.722 153.781 301.834 153.775C301.302 153.804 300.848 154.212 300.276 154.186C299.406 154.148 298.677 153.618 297.976 153.151C297.964 153.342 298.349 154.612 297.909 154.676C297.53 154.732 297.175 153.479 297.138 153.188C295.011 155.061 292.758 154.017 290.119 154.254C288.247 154.422 284.344 155.669 283.038 153.718C282.984 154.133 282.817 154.496 282.538 154.808C282.165 155.375 281.843 155.327 281.57 154.662C281.478 154.666 280.568 154.863 280.551 154.862C279.91 154.811 279.081 154.582 278.43 154.526C277.422 154.44 277.608 155.173 276.806 155.184C276.367 155.191 275.25 154.559 274.485 154.519C273.162 154.45 271.81 155.011 270.504 154.841C269.605 154.725 268.792 153.994 267.911 153.965C266.812 153.929 266.455 154.766 265.585 153.59C265.406 153.542 265.296 154.234 265.225 154.246C265.242 154.243 264.396 154.368 264.296 154.407C264.122 154.473 263.446 154.782 263.24 154.786C262.796 154.794 262.554 154.476 262.083 154.469C261.304 154.455 258.815 155.141 258.885 153.701C256.103 154.73 253.729 154.329 250.874 154.572C249.564 154.684 248.741 154.509 247.495 154.269C245.934 153.968 244.898 154.346 243.341 154.422C241.845 154.496 241.373 153.863 240.111 153.293C239.612 153.068 239.283 152.771 238.672 152.896C238.324 152.968 238.572 153.553 238.469 153.593C237.932 153.8 237.558 153.581 236.822 153.631C235.463 153.724 234.923 154.857 233.526 153.793C233.99 153.737 234.455 153.68 234.919 153.624C233.584 153.059 231.821 152.77 232.145 154.828C231.006 154.669 231.992 153.895 231.432 153.617C230.872 153.341 230.245 153.804 229.54 154.033C227.678 154.636 226.126 154.337 224.184 154.228C221.979 154.105 216.818 155.903 215.238 153.569C215.191 154.061 214.662 155.431 213.959 155.366C213.729 155.345 214.369 153.891 214.441 153.737C214.079 154.507 212.425 154.654 211.61 155.053C211.702 154.639 211.793 154.225 211.884 153.812C211.128 154.616 210.76 154.125 209.87 154.394C209.481 154.512 208.918 155.313 208.585 155.362C208.197 154.913 207.71 154.72 207.123 154.782C206.732 154.685 206.342 154.665 205.952 154.725C204.39 154.838 202.965 155.705 201.411 155.115C200.066 154.603 199.546 153.287 198.743 155.381C198.532 155.009 198.321 154.636 198.11 154.264C197.85 154.668 197.59 155.072 197.329 155.476C196.312 154.81 196.249 154.425 195.078 154.669C194.803 154.779 194.521 154.763 194.232 154.623C194.163 154.828 194.094 155.033 194.025 155.238C193.998 155.753 193.845 155.924 193.566 155.748C193.332 155.664 193.12 155.537 192.931 155.365C192.156 155.425 191.167 155.628 190.335 155.516C190.014 155.473 188.002 154.412 187.852 154.577ZM211.565 140.718C211.656 140.858 211.748 140.998 211.839 141.138C210.581 141.801 210.285 141.42 210.155 140.088C210.769 140.1 210.874 141.18 211.565 140.718ZM212.345 139.936C212.95 140.203 213.645 140.728 214.216 140.025C214.6 141.14 211.747 142.662 212.345 139.936ZM216.257 140.429C217.529 141.287 214.478 140.597 214.483 140.599C215.031 140.093 215.622 140.036 216.257 140.429ZM227.196 135.642C227.633 137.84 228.835 137.777 230.777 136.756C233.609 135.266 234.087 132.825 234.285 129.911C234.474 127.118 234.816 126.036 237.701 126.619C239.715 127.027 241.418 126.684 243.448 126.628C245.615 126.569 246.378 126.899 246.552 129.125C246.727 131.354 247.124 133.047 248.744 134.743C250.391 136.468 252.587 137.498 254.727 138.463C255.827 138.958 256.861 139.492 258.079 139.599C258.55 139.641 261.006 139.331 261.057 140.107C261.096 140.69 257.695 142.335 257.334 142.531C255.757 143.388 254.184 144.156 252.462 144.675C248.498 145.87 244.296 145.94 240.191 145.868C233.572 145.751 224.424 142.956 220.466 137.092C222.71 136.609 224.953 136.125 227.196 135.642ZM226.603 116.61C225.555 115.732 224.877 114.406 224.007 113.367C223.568 112.843 223.247 112.676 222.829 112.413C222.39 112.137 222.142 112.528 221.775 111.879C220.827 110.2 223.752 107.839 220.65 107.193C219.601 106.974 217.075 107.804 216.769 106.303C216.335 104.18 220.394 104.041 221.348 102.963C223.247 100.821 221.958 97.1886 223.114 94.7168C224.209 92.3754 227.035 91.9595 229.265 91.256C232.372 90.2763 235.517 89.7082 238.672 88.924C240.879 88.376 244.544 86.174 246.59 88.1196C243.433 88.8196 245.268 89.9184 247.372 90.5387C249.756 91.2417 252.282 91.5159 254.752 91.7118C257.295 91.9132 259.886 91.9516 262.398 91.4455C264.721 90.9773 267.316 88.9609 269.752 89.4773C268.4 91.8241 264.374 93.106 261.927 93.7209C260.68 94.034 259.882 93.936 260.05 95.4882C260.212 96.9927 261.521 98.5011 261.817 100.068C262.208 102.142 261.867 104.048 261.128 105.998C260.4 107.917 260.23 108.168 260.866 110.002C261.856 112.857 259.728 116.012 257.761 118.086C249.805 126.47 234.58 123.294 226.603 116.61ZM246.818 66.5029C246.85 66.5886 246.823 66.5561 246.818 66.5029V66.5029ZM249.296 87.6607C248.966 87.9069 247.066 88.4228 247.145 87.6814C247.252 86.688 248.964 87.0469 249.296 87.6607ZM253.626 67.5924C253.18 67.2606 251.931 67.3969 252.844 66.1391C253.142 66.6925 253.384 67.1424 253.626 67.5924ZM223.662 59.6413C224.23 58.1669 224.859 56.7954 225.116 55.2259C225.274 54.2591 224.959 53.1549 226.313 53.0032C224.588 52.252 224.57 49.2869 224.469 47.75C224.329 45.6331 223.659 42.7989 224.591 40.8288C225.547 38.805 226.837 38.8384 227.226 41.2487C227.379 42.1924 226.796 42.4977 226.686 43.1549C226.469 44.455 226.9 44.17 227.74 43.1795C228.087 44.1862 228.22 45.6991 229.631 45.6351C229.537 45.3628 228.996 44.7622 229.177 44.424C229.454 43.9046 230.81 44.6982 230.982 44.8183C232.22 45.6828 232.488 46.472 231.605 47.5624C232.827 47.6938 231.802 48.7621 232.59 49.0407C233.794 49.4656 232.987 47.4526 232.856 47.0986C233.589 47.3842 233.835 47.7101 234.298 48.288C234.571 48.6868 234.819 49.1008 235.042 49.5291C235.292 50.3109 235.805 50.5068 236.583 50.1169C238.142 50.6053 240.293 50.529 241.691 51.3826C242.329 51.7725 242.559 52.6256 243.092 52.9496C243.692 53.3144 244.496 53.1489 245.14 53.3779C244.904 53.9125 245.095 54.202 245.712 54.2473C246.191 54.2911 246.655 54.3989 247.103 54.5702C247.439 54.3176 247.804 54.1183 248.198 53.973C248.463 54.4392 248.837 54.5544 249.322 54.3196C250.759 54.5884 251.45 55.1314 252.363 55.9432C253.183 56.6718 252.516 56.7309 253.414 56.6664C253.775 56.6403 254.408 56.0289 255.234 56.148C255.709 56.2406 256.167 56.3868 256.608 56.5866C257.086 56.9943 257.592 57.0455 258.128 56.7407C258.998 57.1656 259.084 57.9183 260.145 58.0212C261.319 58.1354 260.941 56.6743 261.747 58.735C262.833 56.5502 263.23 60.0307 264.351 60.3118C265.512 60.6033 265.637 59.6635 266.631 60.6904C266.929 60.9981 266.912 61.5066 267.246 61.833C267.794 62.3672 268.535 62.2603 269.012 62.9889C268.746 62.5823 269.074 64.4299 269.069 64.3688C269.143 65.1841 268.417 66.0973 269.904 66.0279C269.887 66.1135 269.173 67.1527 269.034 67.0351C269 66.9164 268.971 66.7963 268.948 66.6747C268.789 66.7432 268.718 67.7332 268.747 67.9079C268.873 67.9276 268.925 67.8341 268.902 67.6273C268.658 68.3909 269.026 68.8758 268.557 69.6004C268.256 70.0637 267.434 70.4117 266.997 70.6978C265.944 71.388 264.912 72.0801 263.884 72.8146C261.486 74.5278 258.802 76.5935 255.783 76.9509C257.299 75.4642 266.023 69.8377 261.647 68.2225C260.836 67.9232 259.358 67.6396 258.51 67.5766C257.454 67.4983 256.362 68.1019 255.198 67.7253C253.793 67.2714 254.322 65.9525 253.464 65.4794C251.642 64.4756 252.072 66.8362 251.498 67.4545C250.896 66.8229 251.025 66.5157 250.073 66.4586C249.107 66.4005 248.877 67.2921 247.75 66.7368C246.197 65.9712 247.019 64.4466 244.816 64.4107C244.853 64.0759 245.173 63.1405 244.752 62.8796C244.186 63.6136 244.624 64.4343 244.098 65.1407C243.835 65.4952 243.264 65.7778 242.847 65.8925C241.87 66.1603 241.731 66.6733 241.89 65.2047C241.166 66.5069 238.947 65.9712 237.627 65.8403C235.48 65.6271 233.199 65.2215 231.141 64.5342C229.238 63.8982 228.222 62.8058 226.652 61.8118C226.059 61.4357 225.776 61.5795 224.925 61.3461C224.085 61.1157 223.267 60.6692 223.662 59.6413ZM228.191 36.5857C228.515 36.3908 228.748 39.2997 228.355 39.8432C227.636 38.7075 226.361 37.0416 228.191 36.5857ZM229.226 35.4254C230.268 34.4836 229.544 36.916 229.353 37.3241C228.967 37.077 228.581 36.8299 228.195 36.5827C228.687 36.281 228.81 35.801 229.226 35.4254ZM268.539 31.5052C278.166 33.5226 287.705 37.2936 295.426 43.4995C302.459 49.152 307.423 57.172 310.206 65.7029C313.095 74.5578 312.124 84.3821 305.252 91.159C301.631 94.7286 296.85 96.8824 292.293 98.984C290.11 99.9907 287.862 100.83 285.67 101.813C284.096 102.52 282.174 103.65 280.378 103.454C281.295 102.491 282.624 102.471 283.733 101.883C285.073 101.171 286.168 99.8047 287.323 98.8289C288.47 97.8601 291.013 94.8093 292.775 95.5478C292.531 93.9227 294.385 93.168 295.221 92.0963C296.105 90.9626 296.168 89.6368 297.796 89.2656C296.047 87.899 296.583 85.3214 296.963 83.461C297.45 81.0817 297.675 78.8974 297.867 76.4763C298.213 72.1111 298.492 66.5507 296.076 62.7132C295.293 61.4672 294.295 60.3222 293.596 59.0279C292.753 57.4683 292.939 56.0953 292.939 54.3856C291.398 55.4194 291.073 53.3114 290.422 52.284C289.934 51.513 289.292 51.0823 289.135 50.1125C289.02 49.4065 289.787 49.2874 289.367 48.5475C288.851 48.9364 288.645 49.5389 288.384 50.0982C287.908 49.9082 288.47 49.2465 288.197 49.0314C288.189 49.0255 287.271 48.6272 287.316 48.6848C286.726 47.937 286.535 46.6959 286.246 45.8059C285.164 46.3533 285.366 46.2888 284.159 45.3741C283.946 45.2132 282.883 44.4737 282.784 44.232C282.316 43.1017 283.135 43.7712 282.906 43.0697C282.249 41.0547 278.559 41.4358 278.267 38.4165C276.468 39.5572 275.782 37.941 274.718 36.7915C273.628 35.6139 271.8 35.161 271.898 33.2932C271.332 33.4867 270.765 33.6797 270.2 33.8722C270.494 32.1487 267.93 32.2584 267.001 31.3841C267.517 31.3905 268.029 31.4309 268.539 31.5052ZM270.005 138.254C270.897 137.457 270.627 138.517 271.201 138.396C271.692 138.292 271.789 137.922 272.259 137.808C274.199 137.34 277.099 137.928 279.139 137.827C281.501 137.71 285.551 138.2 286.677 140.96C287.355 142.623 286.32 142.057 285.18 141.934C284.296 141.838 283.51 142.017 282.635 142.008C282.202 142.075 281.771 142.068 281.342 141.988C281.132 141.85 281.009 141.656 280.97 141.406C279.753 141.222 278.46 141.941 277.112 141.977C275.313 142.025 273.713 141.68 272.346 140.467C271.803 141.276 271.433 141.677 270.455 141.768C270.43 141.77 269.475 141.386 269.327 141.348C269.132 141.297 268.637 141.707 268.26 141.59C268.929 140.526 269.026 139.128 270.005 138.254ZM392.889 147.86C393.207 146.757 393.472 145.639 393.762 144.529C398.203 149.578 402.09 156.336 403.839 162.811C404.975 167.019 406.743 174.643 401.326 176.813C396.915 178.581 394.455 172.244 393.339 169.123C390.874 162.233 390.874 154.87 392.889 147.86ZM194.188 68.7473C194.245 68.736 191.313 70.4388 192.279 69.0599C192.667 68.5056 194.139 68.1157 194.792 68.1157L194.188 68.7473ZM191.368 69.469C191.028 69.754 190.686 70.0356 190.34 70.3133C190.008 69.7895 189.676 69.2657 189.344 68.7419C189.998 68.4662 192.777 68.2594 191.368 69.469ZM189.301 122.414C188.687 121.999 188.201 122.22 188.017 122.916C188.017 122.223 188.378 120.613 188.934 120.425C189.293 120.304 187.741 118.47 188.177 117.99C189.286 118.625 188.622 119.233 188.947 120.052C189.094 120.421 189.534 120.771 189.631 121.055C189.794 121.537 190.457 123.195 189.301 122.414ZM186.295 118.288C185.667 118.448 186.767 119.484 186.766 119.942C186.765 120.288 186.349 120.554 186.177 121.027C185.805 122.054 186.446 122.747 185.391 123.53C185.391 121.281 183.88 115.323 186.784 114.227C185.367 113.113 186.531 111.827 187.641 113.16C188.709 114.442 188.029 117.845 186.295 118.288ZM184.782 109.414C184.212 107.392 182.493 106.685 180.53 106.805C180.605 105.77 181.39 104.278 181.957 106.143C182.19 105.592 182.352 104.873 182.884 104.508C183.779 107.312 188.244 108.861 185.464 111.899C185.237 111.071 185.016 110.241 184.782 109.414ZM179.594 106.956C169.254 107.705 154.737 109.847 146.463 101.932C141.068 96.7716 141.356 88.7349 145.716 83.0012C148.204 79.7294 151.6 77.4255 155.011 75.2308C156.328 74.3836 157.443 73.8243 158.888 73.3374C159.122 73.3123 159.342 73.3645 159.548 73.494C159.629 73.1454 159.825 72.8875 160.139 72.7191C160.696 72.4208 161.492 72.3145 161.813 71.6951C161.47 72.8579 161.294 74.0552 161.168 75.2584C160.889 74.9344 160.611 74.6105 160.333 74.2866C160.1 76.4778 157.814 75.1515 156.449 75.4253C157.348 76.6678 157.991 77.1192 158.069 78.7615C157.399 77.5269 155.999 76.7151 154.697 76.3173C155.404 78.4056 155.904 79.6452 155.192 81.9354C154.332 81.445 154.274 80.2675 153.231 79.9854C152.956 81.351 152.907 82.8663 152.554 84.1915C149.884 82.9751 150.144 86.2513 151.217 87.8724C151.787 88.7349 152.067 89.7333 152.576 90.5613C153.824 92.5921 152.875 89.5551 154.263 89.6993C153.951 91.8413 153.843 92.0545 155.413 93.6229C156.944 95.1525 157.739 97.2748 159.378 98.7118C159.852 98.1062 159.106 97.4727 159.041 96.8932C160.565 97.1487 161.279 98.6753 162.745 97.323C163.384 98.567 164.076 99.9371 165.607 100.193C164.595 98.2717 167.55 99.5743 168.308 99.847C168.883 100.054 169.913 100.218 170.135 100.298C171.384 100.748 170.527 99.94 171.285 101.416C172.398 101.081 172.818 100.159 174.149 100.938C175.231 101.572 175.234 102.657 175.481 103.768C175.739 103.041 175.999 102.314 176.284 101.597C176.575 101.719 177.793 103.058 177.661 103.065C180.512 102.925 180.411 104.693 179.594 106.956ZM165.076 70.7056C165.648 70.3044 166.348 70.8386 166.991 70.6948C167.881 70.4964 168.386 69.7348 169.381 69.6531C169.104 70.5363 168.585 70.4536 168.146 71.1472C167.996 71.3835 168.074 71.9506 167.941 72.0865C166.826 73.2267 166.441 72.2962 165.303 71.4332C165.402 72.474 165.603 72.8028 164.621 73.0819C163.732 73.335 162.265 72.4031 161.817 71.6883C162.195 70.9331 164.39 71.1861 165.076 70.7056ZM172.17 69.0791C173.136 69.1712 171.973 72.0156 170.589 69.2563C171.11 69.1431 171.638 69.084 172.17 69.0791ZM177.135 68.5292C178.658 68.2191 183.737 66.7737 184.302 69.1406C184.403 69.0816 184.781 67.7455 184.957 67.9084C185.66 68.5617 185.739 69.4276 185.685 70.3349C184.835 68.5666 185.137 70.1198 184.561 69.9987C184.411 69.9667 184.181 70.2473 183.8 70.1316C183.3 69.9795 182.942 68.9186 182.627 68.5592C182.102 69.3075 181.452 70.2709 180.401 70.206C179.657 70.1602 178.458 68.2471 179.421 70.3413C178.856 70.1548 178.201 69.7324 177.57 69.817C176.865 69.9121 176.498 70.6077 175.837 70.7199C174.37 70.968 174.149 69.5591 173.198 68.7941C174.51 68.7178 175.839 68.7931 177.135 68.5292ZM186.347 68.5066C186.455 68.0212 187.787 67.8252 188.126 67.9793C188.954 68.3549 188.648 68.8507 188.496 69.6758C187.881 69.3853 187.267 69.0953 186.652 68.8049C187.57 70.2798 185.908 70.4939 186.347 68.5066ZM444.264 154.9C444.155 151.366 444.052 147.77 443.155 144.329C442.527 141.92 440.984 137.602 438.066 137.184C433.666 136.553 431.229 145.239 429.996 148.22C429.749 144.71 429.965 140.974 428.638 137.642C427.574 134.973 424.889 132.444 422.576 135.442C420.518 138.111 420.123 142.049 419.581 145.26C418.879 149.42 418.457 153.611 417.945 157.796C415.935 153.918 415.584 149.478 413.995 145.446C412.496 141.642 410.137 138.009 407.865 134.626C406.01 131.862 403.752 129.264 400.845 127.574C398.315 126.104 393.89 124.513 391.478 126.955C389.466 128.993 389.781 131.72 389.886 134.291C389.933 135.436 390.112 136.221 389.104 136.798C388.609 137.082 387.834 136.935 387.29 137.087C386.412 137.331 385.739 137.746 384.997 138.297C379.793 142.159 377.394 149.12 376.652 155.326C375.712 163.189 378.781 169.929 381.423 177.123C381.844 178.27 383.181 180.702 382.996 181.982C382.794 183.385 381.031 183.421 379.841 183.45C376.249 183.539 372.494 183.272 368.92 182.937C360.409 182.142 351.906 178.051 344.286 174.398C342.896 173.732 340.929 173.35 339.794 172.3C338.727 171.314 338.446 169.733 337.525 168.601C335.265 165.824 333.826 163.454 330.498 161.776C327.109 160.068 323.651 158.489 320.345 156.618C316.256 154.303 312.478 151.371 308.56 148.779C301.278 143.963 294.046 138.684 286.326 134.589C282.739 132.686 278.73 132.378 275.005 130.82C271.378 129.302 266.926 129.3 263.141 130.258C261.298 130.726 260.043 131.832 258.348 132.555C256.36 133.401 254.739 132.467 252.991 131.456C250.319 129.912 247.671 127.397 251.475 125.731C252.766 125.166 254.383 124.952 255.51 124.063C256.712 123.117 257.677 121.37 258.654 120.184C260.827 117.548 262.124 114.513 265.304 112.874C268.82 111.06 272.988 110.567 276.737 109.382C280.799 108.099 284.777 106.573 288.763 105.074C295.945 102.374 303.412 99.4596 308.574 93.5166C313.025 88.3893 314.965 81.7714 314.786 75.0496C314.418 61.3082 307.047 47.3625 296.471 38.771C283.503 28.2359 267.005 24.7229 250.624 24.907C242.936 24.9936 233.761 25.9984 227.347 30.6629C221.806 34.6918 220.884 41.7385 221.708 48.0995C222.043 50.6811 223.186 54.0877 221.363 56.3626C220.342 57.6352 218.511 57.9503 217.136 58.7439C215.409 59.7408 213.886 60.6963 211.93 61.2236C203.621 63.4645 194.868 62.6842 186.372 62.5601C172.219 62.3534 157.712 66.18 147.153 76.1391C138.627 84.1807 136.07 99.3449 146.469 107.185C154.871 113.518 168.049 112.821 177.955 111.717C181.027 111.374 183.139 110.875 183.146 114.629C183.154 118.728 182.474 123.013 183.521 127.038C185.171 133.377 191.271 133.528 196.663 132.163C199.509 131.443 202.259 130.36 204.961 129.226C208.924 127.562 212.557 125.116 216.471 123.455C219.125 122.33 221.111 125.97 223.465 123.447C223.9 122.98 223.98 122.285 224.636 122.047C225.664 121.673 227.388 122.983 228.29 123.398C229.64 124.019 231.001 124.475 231.54 125.97C232.045 127.368 231.824 129.591 231.34 130.97C230.29 133.968 227.462 133.376 224.88 133.175C220.377 132.825 215.904 132.083 211.403 131.772C207.365 131.492 203.583 132.697 200.099 134.686C192.783 138.863 186.797 145.507 180.453 150.971C177.188 153.783 174.032 156.821 170.481 159.269C168.937 160.334 167.265 161.313 165.924 162.636C164.592 163.949 164.446 165.142 163.99 166.889C163.18 169.998 159.152 171.519 156.635 173.159C153.075 175.48 149.301 177.117 145.31 178.54C136.858 181.555 128.34 183.66 119.504 185.216C115.178 185.978 110.888 186.479 106.519 186.891C102.754 187.245 98.7501 188.403 94.9893 187.478C96.0725 185.723 97.9918 184.67 99.4867 183.314C101.414 181.565 103.053 179.494 104.511 177.347C107.351 173.168 109.342 168.683 109.799 163.613C110.211 159.051 109.739 153.593 106.982 149.739C106.029 148.407 104.146 148.045 103.293 146.845C102.446 145.653 102.769 143.601 102.305 142.21C101.124 138.675 97.6186 134.293 94.5338 132.24C91.1871 130.011 86.2913 129.193 82.4251 130.354C75.2629 132.505 70.8634 140.149 67.5861 146.326C65.7958 142.564 68.7939 136.983 65.2965 133.902C62.3467 131.304 60.0054 136.338 59.0186 138.492C54.3873 148.602 53.3355 159.325 51.3951 170.143C50.6043 169.364 51.0095 167.367 51.0839 166.438C51.2222 164.71 51.2094 163.014 51.2129 161.278C51.2222 156.894 52.0386 152.489 51.6644 148.108C51.4482 145.575 50.6397 140.235 46.9552 141.077C43.8306 141.79 41.8733 146.178 40.8915 148.861C39.4754 152.73 39.1485 156.561 39.2366 160.648C39.3341 165.165 38.4724 169.607 38.2637 174.117C37.8579 182.877 38.2587 191.562 40.7758 200.017C44.8976 213.861 54.3745 225.365 67.0228 232.311C73.9915 236.139 81.7225 238.56 89.671 239.081C93.9784 239.363 98.1366 238.851 102.407 238.407C106.621 237.968 110.858 237.765 115.065 237.25C124.434 236.102 133.563 233.14 142.079 229.154C146.562 227.056 150.777 224.481 155.186 222.244C156.955 221.347 158.151 220.224 159.66 218.976C161.157 217.739 161.572 217.642 163.274 217.642C162.775 216.308 164.232 215.897 164.881 215.053C164.844 215.462 164.808 215.871 164.771 216.281C165.266 215.21 165.726 215.22 166.152 216.312C166.573 215.089 166.885 213.832 167.393 212.641C169.336 213.623 169.173 215.958 171.772 214.253C173.912 212.85 175.88 211.195 178.062 209.82C183.032 206.687 187.317 202.611 192.302 199.514C192.302 202.53 192.515 205.573 192.111 208.574C191.727 211.427 190.66 214.094 189.812 216.826C188.247 221.866 188.138 227.252 186.405 232.242C185.687 234.308 183.819 236.036 183.283 238.047C182.737 240.099 183.998 241.743 181.884 243.091C180.393 244.04 178.529 244.442 176.878 245.016C174.36 245.893 171.969 247.13 169.517 248.179C158.018 253.1 146.801 258.111 136.148 264.727C126.037 271.005 115.772 277.489 106.484 284.945C98.4231 291.416 90.2747 299.783 88.3125 310.34C86.4085 320.579 91.4815 331.569 101.668 334.942C106.965 336.695 112.952 336.478 118.468 336.554C124.403 336.636 130.693 335.208 136.528 334.174C142.69 333.082 148.747 331.374 154.928 330.399C160.857 329.464 166.296 327.374 172.129 326.085C178.341 324.713 184.713 323.969 190.96 322.735C193.772 322.179 196.528 321.359 199.348 320.845C202.435 320.282 205.556 320.07 208.613 319.325C214.543 317.877 220.221 315.544 226.177 314.198C228.854 313.592 231.491 312.782 234.169 312.216C236.636 311.695 238.557 310.311 241.029 311.447C243.025 312.366 244.618 313.941 246.508 315.038C248.959 316.461 251.543 317.735 254.099 318.96C259.233 321.42 264.558 323.121 269.927 324.968C275.566 326.908 281.104 329.121 286.946 330.403C292.936 331.716 299.046 332.082 305.076 333.121C317.427 335.249 329.673 336.204 342.21 336.281C348.547 336.321 354.883 335.571 361.206 335.659C366.802 335.738 371.668 336.998 376.786 334.026C384.964 329.279 394.449 322.127 394.248 311.74C394.065 302.332 388.414 293.343 383.113 285.922C376.676 276.911 367.498 270.565 358.502 264.349C348.915 257.725 338.147 253.147 328.071 247.365C322.917 244.408 318.165 241.226 312.569 239.124C309.898 238.122 307.292 236.959 304.653 235.879C302.529 235.01 299.462 234.53 297.644 233.088C296.509 232.189 296.4 230.826 296.101 229.489C295.437 226.529 294.395 223.722 293.385 220.868C291.434 215.356 290.137 209.742 289.299 203.962C288.5 198.451 286.726 192.72 287.644 187.12C293.688 192.958 299.898 198.569 306.081 204.252C308.398 206.382 310.673 208.556 313.002 210.673C314.751 212.262 316.938 214.623 319.376 215.095C322.488 215.697 321.351 212.258 323.489 211.725C324.795 211.4 328.735 214.715 329.768 215.369C336.315 219.52 343.564 222.15 350.765 224.975C358.316 227.938 366.081 230.569 374.206 231.315C381.711 232.004 389.385 231.119 396.628 229.078C411.051 225.011 421.664 215.363 429.453 202.857C438.328 188.606 444.786 171.912 444.264 154.9Z" fill="black"/>
<path fill-rule="evenodd" clip-rule="evenodd" d="M223.829 123.833C223.826 123.837 223.805 123.883 223.805 123.883C223.831 123.865 223.839 123.848 223.829 123.833Z" fill="black"/>
<path fill-rule="evenodd" clip-rule="evenodd" d="M224.525 124.017C224.471 123.563 224.355 123.119 224.176 122.684C223.698 123.44 223.271 123.763 223.898 124.564C224.107 124.382 224.316 124.199 224.525 124.017Z" fill="black"/>
<path fill-rule="evenodd" clip-rule="evenodd" d="M257.784 232.055C258.318 231.487 257.384 231.273 257.029 231.266C257.064 231.875 256.762 233.334 257.597 233.616C257.396 233.065 257.459 232.545 257.784 232.055Z" fill="black"/>
<path fill-rule="evenodd" clip-rule="evenodd" d="M243.695 113.303C242.778 115.073 244.805 115.622 245.979 114.767C246.862 114.124 247.384 112.485 247.529 111.434C247.999 108.031 245.615 104.792 244.426 101.773C244.119 100.993 243.698 98.3167 242.709 98.243C241.572 98.1585 241.488 100.624 241.473 101.26C241.43 103.178 241.938 105.131 242.534 106.941C243.176 108.893 244.768 111.236 243.695 113.303Z" fill="black"/>
<path fill-rule="evenodd" clip-rule="evenodd" d="M248.061 106.204C251.589 109.341 254.411 104.116 254.165 101.025C254.104 100.259 253.586 97.4358 252.131 98.4633C251.401 98.9795 252.024 100.657 251.675 101.393C249.988 104.964 248.363 99.4257 247.227 98.9906C245.844 98.4609 245.705 100.275 245.707 101.245C245.71 103.169 246.628 104.929 248.061 106.204Z" fill="black"/>
<path fill-rule="evenodd" clip-rule="evenodd" d="M235.254 106.691C236.085 105.384 237.107 103.631 237.22 102.066C237.395 99.6324 235.975 99.8354 234.806 101.533C233.981 102.733 233.361 104.767 231.539 104.261C229.289 103.638 229.976 100.617 228.717 99.181C225.536 103.447 231.555 112.506 235.254 106.691Z" fill="black"/>
<path fill-rule="evenodd" clip-rule="evenodd" d="M240.021 119.747C241.337 120.031 244.766 119.926 243.578 117.915C242.079 115.381 237.095 119.115 240.021 119.747Z" fill="black"/>
<path fill-rule="evenodd" clip-rule="evenodd" d="M286.108 44.1849C286.349 43.4688 286.018 43.3387 285.444 42.7747C284.9 43.2759 285.596 43.8032 286.108 44.1849Z" fill="black"/>
<path fill-rule="evenodd" clip-rule="evenodd" d="M310.646 173.895C311.514 174.033 311.793 173.575 311.483 172.52C310.114 172.431 309.835 172.89 310.646 173.895Z" fill="black"/>
<path fill-rule="evenodd" clip-rule="evenodd" d="M263.253 63.2455C264.21 63.6826 263.844 64.5793 263.827 65.3372C264.32 64.8021 265.317 63.8238 264.911 63.0551C264.286 61.8699 262.653 62.9721 263.253 63.2455Z" fill="black"/>
<path fill-rule="evenodd" clip-rule="evenodd" d="M230.645 48.3283C230.499 48.044 230.353 47.7596 230.207 47.4753C229.612 47.9517 228.694 49.2115 229.639 49.8255C230.026 49.3561 230.362 48.8571 230.645 48.3283Z" fill="black"/>
<path fill-rule="evenodd" clip-rule="evenodd" d="M242.131 56.6901C243.322 57.6229 242.751 54.7599 242.715 54.5261C242.538 54.8619 241.529 56.2189 242.131 56.6901Z" fill="black"/>
<path fill-rule="evenodd" clip-rule="evenodd" d="M241.471 55.2362C241.38 54.9996 241.288 54.7631 241.197 54.5261C240.715 54.9724 240.123 55.884 240.921 56.4063C241.139 56.0405 241.323 55.6506 241.471 55.2362Z" fill="black"/>
<path fill-rule="evenodd" clip-rule="evenodd" d="M249.035 65.0678C249.133 65.1575 249.23 65.2471 249.327 65.3372C249.72 64.5459 249.273 63.9513 248.531 63.9271C248.584 64.3714 248.752 64.7517 249.035 65.0678Z" fill="black"/>
<path fill-rule="evenodd" clip-rule="evenodd" d="M217.119 154.099C217.591 153.778 218.02 153.411 218.406 153C217.008 152.147 217.846 153.997 216.162 152.861C215.8 153.361 216.392 154.482 217.119 154.099Z" fill="black"/>
<path fill-rule="evenodd" clip-rule="evenodd" d="M275.88 231.736C276.412 230.921 276.508 230.944 275.782 230.326C275.176 231.333 275.239 231.074 275.88 231.736Z" fill="black"/>
<path fill-rule="evenodd" clip-rule="evenodd" d="M164.746 102.037C165.036 102.339 165.325 102.64 165.615 102.941C165.75 102.547 166.487 101.432 165.986 101.061C165.573 101.387 165.159 101.712 164.746 102.037Z" fill="black"/>
<path fill-rule="evenodd" clip-rule="evenodd" d="M175.042 105.02C174.58 104.943 173.475 104.606 173.219 105.035C173.895 105.589 175.421 105.083 175.042 105.02Z" fill="black"/>
</svg>
