<svg width="363" height="273" viewBox="0 0 363 273" fill="none" xmlns="http://www.w3.org/2000/svg">
<path fill-rule="evenodd" clip-rule="evenodd" d="M107.501 149.267C109.183 161.884 110.865 174.501 112.548 187.119L113.906 197.307C114.078 198.593 113.916 201.129 114.569 202.28C114.8 202.686 115.406 202.879 115.852 203.118C117.387 203.942 118.922 204.767 120.457 205.591C133.442 212.562 146.427 219.534 159.412 226.505C171.874 233.195 184.335 239.886 196.797 246.577C198.087 247.269 200.172 249.076 201.564 248.6C202.888 248.147 204.24 247.031 205.442 246.328C207.748 244.976 210.054 243.625 212.36 242.273C226.315 234.095 240.27 225.916 254.225 217.738C259.982 214.364 265.74 210.99 271.497 207.616C273.072 206.693 274.648 205.769 276.223 204.846C277.047 204.363 277.154 204.38 277.479 203.561C278.691 200.497 279.252 196.987 280.11 193.808C281.056 190.304 282.001 186.801 282.947 183.298C283.368 181.734 283.17 181.532 282.483 180.023C281.122 177.036 279.762 174.05 278.401 171.063C275.381 164.434 272.362 157.805 269.341 151.176C268.12 148.496 265.178 146.609 263.061 144.638L230.179 114.024C229.344 113.246 228.509 112.469 227.674 111.691C227.536 116.365 226.613 121.389 227.967 125.904C230.19 133.313 232.413 140.722 234.635 148.132C235.71 151.713 236.784 155.294 237.858 158.875C238.058 159.541 239.273 162.179 238.949 162.764C238.768 163.089 237.233 163.417 236.901 163.543C235.473 164.087 234.044 164.63 232.616 165.173C228.636 166.687 224.657 168.201 220.677 169.715C217.098 171.077 213.519 172.439 209.939 173.8C208.726 174.262 207.3 175.117 206.018 175.046C204.872 174.982 203.568 174.415 202.458 174.129C200.507 173.627 198.556 173.124 196.605 172.621C192.773 171.634 188.941 170.647 185.109 169.66C180.798 168.55 177.157 165.288 173.47 162.874C167.132 158.724 160.794 154.574 154.457 150.425C153.006 149.475 153.001 148.933 152.423 147.199C151.123 143.301 149.824 139.403 148.525 135.505C147.831 133.423 146.978 131.333 146.454 129.202C145.589 125.686 145.077 122.046 144.392 118.49C144.186 117.417 143.979 116.344 143.773 115.272C141.119 116.348 138.465 117.426 135.81 118.503C135.426 118.659 133.551 119.125 133.385 119.507C133.279 119.749 133.837 120.846 133.916 121.082C136.117 127.6 138.318 134.117 140.519 140.635C141.211 142.685 141.903 144.736 142.595 146.786C140.941 144.186 139.287 141.587 137.633 138.987C136.333 143.359 135.033 147.731 133.733 152.103C130.661 148.558 127.589 145.013 124.516 141.469C123.453 145.013 122.389 148.558 121.326 152.103C118.017 147.731 114.709 143.359 111.4 138.987C111.007 141.269 110.613 143.55 110.22 145.832C110.101 146.52 110.125 148.496 109.667 149.041C109.289 149.49 108.202 149.267 107.501 149.267Z" fill="#20BF55"/>
<path fill-rule="evenodd" clip-rule="evenodd" d="M316.982 176.54C316.796 182.48 316.925 190.189 313.675 195.411C313.15 196.254 311.373 198.879 311.175 196.57C310.98 194.303 311.538 192.057 310.985 189.764C310.69 188.536 309.695 185.856 307.996 186.964C307.13 187.529 306.901 188.924 306.562 189.805C306.061 191.108 305.5 192.39 304.972 193.683C303.128 198.196 301.219 203.581 297.121 206.568C297.657 202.676 299.119 198.521 298.136 194.587C297.802 193.247 296.787 190.798 295.04 191.584C293.338 192.349 292.235 195.765 291.432 197.285C288.996 201.896 286.505 206.42 283.763 210.859C282.384 213.091 280.894 215.132 279.089 217.042C277.961 218.236 276.554 220.255 274.776 220.433C274.776 217.029 275.896 213.74 276.918 210.534C278.018 207.087 279.021 203.611 280.101 200.157C281.038 197.161 281.807 194.188 282.43 191.116C282.688 189.846 282.893 188.53 283.976 187.71C284.949 186.972 286.487 186.621 287.572 186.079C290.422 184.655 293.354 183.119 296.001 181.349C297.089 180.622 298.025 179.684 299.163 179.032C300.46 178.289 301.671 177.664 302.871 176.759C308.048 172.854 312.716 168.05 315.861 162.331C316.372 164.628 317.048 166.873 317.123 169.242C317.199 171.67 317.059 174.114 316.982 176.54ZM274.369 203.84C273.541 202.441 272.28 203.014 271.168 203.688C269.443 204.734 267.713 205.773 265.979 206.806C262.451 208.908 258.988 211.12 255.541 213.352C248.524 217.894 241.262 221.612 233.864 225.456C226.714 229.172 219.847 233.593 213.147 238.063C211.537 239.137 209.939 240.236 208.393 241.401C207.02 242.435 205.923 243.887 204.478 244.808C202.974 245.766 201.94 244.989 200.501 244.282C198.701 243.398 196.826 242.657 194.987 241.86C187.564 238.641 180.12 235.301 172.899 231.648C165.722 228.018 158.922 223.835 152.045 219.681C148.77 217.703 145.551 215.599 142.321 213.548C138.883 211.365 135.323 209.73 131.717 207.874C130.121 207.053 128.708 205.938 127.069 205.192C125.346 204.407 123.526 203.844 121.984 202.712C121.292 202.205 120.709 201.598 119.918 201.239C119.269 200.944 118.532 200.895 117.891 200.582C116.588 199.945 116.214 198.653 115.962 197.309C114.338 188.682 113.475 179.816 112.534 171.092C112.005 166.187 111.415 161.3 110.684 156.421C110.354 154.221 111.017 152.516 111.365 150.376C111.771 147.877 111.932 145.325 112.204 142.808C113.489 145.188 114.6 147.686 116.234 149.858C117.439 151.459 119.497 153.729 121.716 153.675C125.165 153.592 125.007 147.677 125.146 145.329C126.717 146.731 127.193 149.015 128.497 150.644C129.687 152.13 131.307 153.975 133.135 154.641C136.984 156.043 136.614 148.898 136.402 146.872C136.296 145.856 135.722 144.248 137.084 144.711C138.337 145.138 139.558 146.907 140.612 147.718C142.433 149.122 144.432 150.287 146.3 151.627C148.619 153.289 151.121 154.49 153.485 156.037C154.964 157.005 156.577 157.223 158.189 157.935C160.55 158.978 162.637 160.533 164.884 161.783C169.336 164.259 174.274 166.479 179.143 167.971C180.718 168.454 182.817 169.815 184.012 168.416C184.748 167.555 185.232 166.241 185.856 165.276C186.647 164.054 187.486 162.865 188.357 161.7C191.455 157.559 194.892 153.649 198.71 150.156C203.151 146.093 208.008 142.437 213.202 139.392C215.434 138.084 224.754 132.219 226.802 136.347C225.119 136.242 223.66 136.858 222.22 137.629C221.869 137.817 220.057 139.111 220.481 137.97C219.955 138.069 219.493 138.755 219.095 139.06C218.406 139.588 217.361 140.197 216.564 140.634C215.775 141.065 214.801 141.171 214.083 141.694C213.82 141.885 213.661 142.195 213.411 142.401L212.693 142.407C212.586 142.804 212.478 143.201 212.371 143.599C211.966 142.299 211.387 143.99 210.71 144.539C210.302 144.869 209.657 145.209 209.178 145.422C208.819 145.581 208.764 145.211 208.416 145.492C208.107 145.742 207.91 146.293 207.577 146.606C207.169 146.99 206.647 147.288 206.192 147.615C205.321 148.243 204.399 148.735 203.517 149.33C202.329 150.131 201.706 151.507 200.553 152.344C200.007 152.741 199.159 152.787 198.863 153.041C198.122 153.678 198.366 154.644 196.984 154.686C197.109 154.888 197.185 155.106 197.211 155.342C196.882 155.285 196.589 155.149 196.332 154.932C196.39 156.311 195.034 156.803 194.221 157.652C193.752 158.142 193.169 158.83 192.838 159.418C192.783 159.517 192.678 160.303 192.656 160.314C192.53 160.374 191.766 159.703 191.839 159.759C191.625 161.033 190.393 162.237 189.853 163.417C189.568 164.038 189.279 165.037 188.719 165.474C188.567 165.593 188.098 165.469 187.71 165.882C187.426 166.185 187.098 166.744 186.982 167.146C186.905 167.414 186.998 168.108 186.887 168.269C186.685 168.564 186.369 168.268 186.051 168.486C185.464 168.888 185.449 169.516 184.591 169.598C185.183 171.037 188.757 171.48 190.056 171.889C193.731 173.046 197.586 174.201 201.02 175.972C201.909 176.43 202.749 176.807 202.906 177.863C203.126 179.331 202.378 181.284 202.235 182.767C201.848 186.772 201.769 190.896 201.85 194.918C201.926 198.728 202.05 202.574 202.227 206.379C202.392 209.908 203.103 213.366 203.487 216.87C203.592 217.831 203.522 222.167 205.176 221.949C206.556 221.767 205.684 218.805 205.658 217.956C205.601 216.077 205.996 214.158 205.98 212.263C205.972 211.351 206.37 210.566 206.408 209.694C206.446 208.832 206.018 208.151 206.147 207.258C206.27 206.401 208.804 201.47 206.37 202.048C206.513 201.343 206.637 200.632 206.826 199.938C207.086 200.172 207.296 200.445 207.454 200.757C207.67 199.243 207.598 197.731 207.733 196.216C207.793 195.53 208.071 194.778 207.976 194.086C207.994 193.799 207.958 193.517 207.867 193.242C207.717 193.083 207.532 193 207.312 192.992C207.196 192.613 207.166 192.509 207.372 192.137C207.46 191.885 207.635 191.727 207.897 191.665C208.396 191.606 208.453 191.319 208.068 190.804C208.269 189.789 208.295 189.148 208.15 188.135C208.028 187.284 208.476 185.636 208.019 184.878C207.486 183.992 207.221 184.852 207.121 183.624C207.1 183.364 207.083 182.822 207.188 182.563C207.302 182.281 207.646 182.396 207.69 182.296C207.989 181.614 208.009 180.27 206.952 180.387C206.993 179.899 207.035 179.412 207.076 178.924C207.84 179.804 207.573 179.059 208.006 178.571C208.589 177.912 209.16 177.799 209.994 177.538C212.217 176.845 214.359 175.801 216.531 174.955C221.131 173.162 225.817 171.562 230.282 169.443C239.673 164.987 248.878 160.15 258.327 155.812C257.652 154.559 258.072 154.498 258.566 153.322C259.224 153.779 259.086 153.46 259.554 153.432C259.512 153.04 259.634 152.921 259.92 153.077C260.148 153.147 260.382 153.172 260.621 153.151C261.206 153.251 261.684 153.573 262.216 153.696C262.39 153.824 262.582 153.921 262.791 153.986C262.979 153.943 263.139 153.85 263.272 153.707C264.133 153.866 264.423 154.514 264.46 155.453C264.467 155.617 263.967 155.784 264.11 156.003C264.36 156.387 265.033 156.295 265.418 156.344C265.334 156.743 265.249 157.141 265.165 157.539C266.854 156.759 266.414 159.199 266.926 160.001C267.069 160.225 267.387 160.046 267.552 160.305C267.768 160.643 267.703 161.122 267.887 161.459C268.303 162.221 268.719 162.128 269.133 163.001C271.299 167.555 274.18 171.799 276.259 176.452C277.248 178.666 278.141 180.919 279.174 183.114C280.125 185.134 280.669 186.852 279.991 189.058C278.419 194.175 276.738 199.386 274.678 204.33C274.575 204.166 274.472 204.003 274.369 203.84ZM164.727 242.04C164.58 242.291 164.432 242.542 164.285 242.794C163.957 240.909 164.83 241.783 164.727 242.04ZM157.794 238.512C157.322 238.371 157.526 237.599 157.541 237.269C157.84 237.642 158.133 238.021 158.382 238.431C158.186 238.458 157.99 238.485 157.794 238.512ZM138.792 231.269C139.289 230.991 139.646 230.791 140.208 230.476C139.636 231.59 139.636 231.59 138.792 231.269ZM108.898 133.097C108.14 134.958 110.452 146.45 108.3 146.825C107.991 145.816 107.952 143.039 106.674 142.708C105.089 142.296 105.245 145.155 105.028 146.039C101.773 143.774 100.327 139.401 98.7719 135.934C96.7896 131.516 95.2298 126.921 93.7402 122.318C92.4665 118.382 91.4133 114.376 90.1262 110.447C89.3176 107.979 88.4459 105.505 87.9021 102.961C87.7841 102.408 87.3193 101.007 87.7142 100.482C88.2881 99.7177 90.3541 100.593 91.0199 100.793C95.3386 102.093 99.8187 102.652 104.256 103.407C109.186 104.246 114.105 105.112 119.064 105.763C120.304 105.925 121.544 106.079 122.784 106.228C123.589 106.325 124.807 106.228 125.572 106.589C127.119 107.319 127.448 110.113 128.022 111.562C130.166 116.968 132.689 122.204 134.946 127.562C136.979 132.388 138.521 137.523 141.444 141.918C139.264 140.952 136.501 135.843 134.066 138.787C133.018 140.054 133.282 141.722 133.366 143.237C133.487 145.428 133.525 147.635 133.525 149.829C131.142 149.21 129.54 146.504 128.289 144.588C126.579 141.97 125.503 139.503 124.746 136.502C124.418 135.202 123.549 135.17 122.776 134.392C122.28 133.892 122.03 133.219 121.319 133.946C120.424 134.86 121.019 137.39 121.174 138.469C121.541 141.037 122.744 144.988 121.574 147.401C119.995 150.657 115.764 142.465 115.269 141.281C115.017 140.679 110.516 129.128 108.898 133.097ZM105.943 77.2968C106.209 77.3376 106.475 77.3783 106.742 77.4191C106.527 77.6088 106.08 78.2738 105.715 78.098C105.791 77.831 105.867 77.5641 105.943 77.2968ZM120.062 74.267C119.979 74.3588 119.895 74.4502 119.811 74.542C119.429 74.0642 119.564 73.3676 119.564 72.815C120.069 73.1202 120.193 73.7306 120.062 74.267ZM121.203 79.5687V81.1306C120.145 80.6719 120.124 80.4351 121.203 79.5687ZM122.488 81.5546C121.747 81.3511 121.658 81.187 121.762 80.0473C122.07 80.6857 122.272 81.1065 122.488 81.5546ZM126.757 93.1217C126.446 93.9214 124.63 92.0157 124.696 91.4453C124.76 90.9011 125.039 90.7388 125.424 91.0887C125.551 91.2046 125.362 91.6232 125.443 91.7686C125.736 92.2947 126.327 92.725 126.757 93.1217ZM126.777 97.9399C126.322 99.0764 125.511 97.2866 126.7 97.2377C126.778 97.4663 126.804 97.7003 126.777 97.9399ZM125.894 96.148C125.718 95.913 125.547 95.6747 125.381 95.4323C125.993 95.556 126.48 96.4486 127.126 95.8531C127.049 96.7613 126.404 96.7864 125.894 96.148ZM86.2817 81.3855C85.2966 80.3103 91.7203 79.5556 92.4953 79.3709C98.1189 78.0299 103.429 76.0894 108.687 73.7083C111.195 72.5725 113.691 71.4229 116.14 70.1637C117.198 69.6203 118.648 69.1594 119.531 68.3434C120.162 67.761 120.137 67.3203 120.956 66.9733C121.652 66.6794 121.687 66.957 122.006 66.4252C122.197 66.1062 122.414 64.9371 122.302 64.5911C121.996 63.6471 121.545 64.4124 120.912 63.7619C120.455 63.2929 120.566 61.9593 120.691 61.407C120.852 61.6701 120.945 61.9558 120.97 62.2635C121.657 61.9246 121.38 60.7608 122.132 60.5701C122.924 60.3694 122.842 60.9866 123.049 61.6176C123.648 60.7385 123.168 59.9887 122.844 59.1301C124.491 58.8217 126.261 58.5229 127.894 59.0709C129.075 59.4669 130.085 60.4407 131.332 60.6289C132.553 60.8129 132.788 60.234 133.688 59.6466C134.418 59.1698 135.046 59.7314 135.422 59.3712C135.19 60.5871 133.197 60.4208 133.442 61.9402C133.553 62.624 134.391 63.2384 134.772 63.7704C135.251 64.4383 135.633 65.1767 135.959 65.9293C137.228 68.8567 137.77 72.2538 138.302 75.3843C139.616 83.1115 139.782 90.9912 141.018 98.7432C141.607 102.436 142.197 106.13 142.503 109.859C142.58 110.791 143.149 112.906 142.683 113.802C142.289 114.56 141.413 114.562 140.644 114.745C139.139 115.103 137.725 115.589 136.281 116.127C134.987 116.61 134.611 116.906 133.78 115.688C132.976 114.51 132.579 113.105 132.004 111.813C131.272 110.167 130.387 108.579 129.538 106.992C131.206 106.992 132.166 106.091 132.122 104.395C132.074 102.517 130.529 102.072 129.893 100.528C129.273 101.332 129.221 101.355 128.78 100.592C128.275 99.7184 127.935 98.1207 127.626 97.1303C127.847 97.366 128.067 97.6018 128.288 97.8371C128.845 97.0707 127.973 95.8626 127.681 95.1409C127.231 94.0264 127.151 92.8214 126.724 91.7101C126.491 91.1036 125.952 90.6261 125.82 89.9933C125.731 89.5697 126.085 89.1666 126.001 88.7366C125.855 87.9879 125.008 87.1847 124.745 86.4232C124.34 85.252 123.9 84.2207 123.397 83.0796C122.717 81.5351 122.875 79.9144 122.75 78.2706C122.621 76.5662 122.076 74.9355 121.883 73.2386C121.749 72.0663 122.167 70.5902 121.28 69.6511C121.176 71.2119 121.623 71.1878 120.157 71.4686C118.487 71.788 117.276 73.0319 115.697 73.4031C115.372 73.4796 115.135 72.0581 115.262 73.9972C114.505 73.4382 112.888 74.1322 113.491 74.4641C113.035 74.9529 112.134 74.6147 111.984 75.3471C110.431 73.8373 107.941 78.9764 106.091 76.2957C105.786 78.1125 104.471 79.1866 102.705 79.4269C101.817 79.5475 101.269 79.8435 100.481 80.1097C100.321 80.1632 100.263 80.3933 100.073 80.4553C99.784 80.5496 99.3593 80.265 99.1509 80.3203C98.7265 80.433 98.2547 80.9913 97.6623 81.1023C96.9831 81.2295 96.2422 81.171 95.5623 81.0923C94.7123 80.9938 94.3383 80.8931 93.5059 81.1732C92.7572 81.4252 91.9554 82.131 91.2606 81.3625C90.1691 83.2509 87.5668 82.7893 86.2817 81.3855ZM136.742 58.5977C135.916 58.4988 136.489 57.7884 136.872 57.575C137.911 56.9957 137.633 58.7048 136.742 58.5977ZM91.005 65.3742C95.853 58.38 104.145 53.5745 111.441 49.5312C115.427 47.3227 119.494 45.1819 123.679 43.3744C125.759 42.4761 127.864 41.6126 129.988 40.8235C131.123 40.402 132.271 40.0188 133.42 39.6373C133.738 39.532 134.315 39.2087 134.648 39.2403C134.591 39.2346 135.474 39.475 135.301 39.5505C135.87 39.3027 136.141 38.6564 136.81 38.398C137.562 38.1073 138.52 37.9872 139.326 37.9609C140.039 37.9375 140.656 38.2321 141.335 38.2552C141.782 38.27 142.161 38.0581 142.598 38.0269C142.822 38.0113 142.802 38.3459 142.937 38.3654C142.995 38.3739 143.591 38.1502 143.596 38.1541C143.813 38.2934 144.005 38.8372 144.201 39.0496C144.764 39.6586 145.589 40.0829 146.339 40.4034C147.251 40.7933 149.477 41.1854 148.445 42.6282C149.178 42.5229 149.519 43.1851 148.602 43.3528C148.105 43.4439 147.892 42.9887 147.523 42.6782C146.671 41.9621 144.601 40.9426 143.373 40.9886C142.682 41.0145 142.149 41.5388 141.512 41.7292C140.885 41.9164 140.574 41.626 140.024 41.6721C139.381 41.7256 138.967 42.2698 138.354 42.3666C137.78 42.4573 137.46 42.066 136.947 42.0932C136.337 42.1255 135.747 42.6551 135.165 42.8331C134.239 43.116 133.559 43.3088 132.655 43.7778C130.903 44.6871 128.947 45.0323 127.141 45.8151C125.698 46.4407 124.061 46.7701 122.725 47.462C121.24 48.2309 119.748 48.997 118.293 49.8325C117.243 50.4362 115.107 50.644 113.948 50.4905C113.931 52.6238 112.881 51.1282 111.823 52.0626C112.074 52.2835 112.358 52.4458 112.675 52.5497C111.528 53.0077 110.468 53.5777 109.357 54.1042C108.209 54.6487 106.984 54.7685 106.23 55.7983C105.535 56.7472 105.77 56.2577 104.733 56.6313C104.258 56.8029 103.844 57.3261 103.501 57.6774C102.912 58.2815 102.782 59.1961 102.445 57.9546C102.347 58.106 101.961 59.0699 101.885 59.0943C101.464 58.647 101.403 59.1773 101.168 59.3669C101.292 59.7792 101.114 60.0493 100.636 60.1773C100.394 60.3574 100.148 60.5339 99.9006 60.7066C99.0016 61.3301 97.8573 61.865 97.2242 62.7942C96.7573 62.5187 96.5843 62.0434 96.8686 61.5581C95.9764 62.3805 94.9118 63.2252 94.6704 64.4911C94.5595 64.3841 94.4301 64.3068 94.2833 64.2593C93.921 64.5039 94.3929 65.2327 94.6226 65.3969C95.6244 65.0076 94.3723 65.1487 95.0455 65.2115C95.2373 65.2292 95.4344 65.3728 95.646 65.3752C96.2667 65.3834 96.8498 65.3536 97.4652 65.259C98.8222 65.0498 100.156 64.6602 101.47 64.2696C102.9 63.8442 104.331 63.4195 105.731 62.8977C106.883 62.468 108.016 61.9891 109.148 61.512C109.601 61.3213 110.053 61.1281 110.506 60.9388C111.366 60.5793 111.82 59.9887 111.7 61.0004C112.385 60.8867 112.979 59.9182 113.505 59.5229C114.245 58.9674 115.077 58.553 115.954 58.2694C116.309 58.1546 116.57 58.0085 116.937 58.0075C117.118 58.0071 117.225 58.5147 117.339 58.4871C118.126 58.2964 117.767 57.8604 118.121 57.2322C118.895 55.8592 120.979 55.0999 122.259 54.32C123.072 53.8248 123.648 53.1587 124.398 52.6103C124.749 52.354 125.004 52.2406 125.372 52.1321C125.653 52.0488 125.999 52.6954 126.181 52.0456C125.526 51.778 124.987 51.4479 124.357 51.2526C123.911 51.114 124.446 50.6401 123.739 50.9222C123.456 51.0357 123.358 51.5844 123.254 51.8141C122.465 51.1098 120.248 51.8397 119.312 52.1346C119.247 52.1548 118.958 52.0024 118.822 52.0116C118.282 52.0477 117.906 52.7748 117.55 53.0882C116.605 53.9209 115.579 54.269 114.415 54.7444C114.725 53.0517 117.002 52.3583 118.331 51.7099C120.274 50.762 122.082 49.5521 124.209 49.0424C125.626 48.7024 127.503 48.4291 128.115 50.0761C128.481 51.0633 128.527 53.5161 127.288 53.9716C127.157 53.5107 127.576 53.1169 127.702 52.717C126.469 53.1878 126.266 54.6692 125.329 55.4424C124.803 55.8766 124.615 56.0159 124.36 56.4356C124.107 56.8525 123.986 57.2414 123.394 57.6849C122.426 55.6285 122.59 58.4453 122.099 58.7987C122.296 58.6565 121.298 59.0716 121.418 59.0277C121.371 59.0447 120.937 58.3407 120.655 58.3556C120.142 58.3825 120.241 58.9472 119.994 59.2315C119.156 60.1936 118.074 60.8246 116.726 60.6732C116.694 61.3578 116.905 62.1756 115.97 62.238L115.848 60.7204C115.339 61.2351 114.669 61.724 114.255 62.3199C113.784 62.998 113.835 63.4156 113.053 63.8676C112.236 64.3401 110.499 65.271 109.526 65.3515C109.767 65.0105 109.724 64.7024 109.4 64.428C108.911 64.9321 108.189 64.9817 107.669 65.4369C109.475 66.1916 106.281 66.1526 105.876 66.2381C105.604 66.2955 105.368 66.5426 105.093 66.5982C104.728 66.6723 104.681 66.2888 104.367 66.4103C103.907 66.5883 104.094 67.0906 103.613 67.343C103.268 67.5245 102.682 67.522 102.293 67.6943C101.364 68.1055 99.3866 69.0162 98.7591 67.9116C98.4412 69.8067 95.1937 68.6532 93.9916 68.5256C92.3453 68.3508 89.4778 67.578 91.005 65.3742ZM97.9197 45.9842C98.1526 45.7853 98.3859 45.7998 98.6191 46.0281C98.2944 44.3131 100.806 43.4804 101.902 42.7512C103.355 41.7841 105.066 39.9078 106.968 40.0563C106.643 40.2967 106.32 40.537 105.996 40.7774C106.458 40.8373 106.921 40.8972 107.383 40.9571C107.122 41.3399 106.861 41.7224 106.6 42.1049C106.173 39.7525 103.946 42.7225 103.302 43.1553C102.653 43.591 102.005 43.9157 101.428 44.4471C100.857 44.9735 100.341 45.9214 99.3965 45.4478C99.3104 46.7913 98.2302 46.4269 97.4833 47.171C97.4521 46.7041 97.7194 46.3741 97.9197 45.9842ZM107.787 39.2775C110.086 38.4165 112.087 36.8244 114.253 35.6872C116.322 34.6007 118.433 33.6251 120.537 32.6116C121.604 32.0973 123.559 30.7672 124.779 31.445C126.424 32.3603 124.159 32.6556 123.57 32.9725C123.352 31.5631 122.59 32.8399 123.045 33.6241C121.789 33.0817 119.05 35.2037 117.852 35.789C117.581 35.9215 117.702 35.9981 117.394 36.1541C117.318 36.1924 116.532 36.3714 116.307 36.4469C115.179 36.8244 114.435 36.5245 113.949 37.8861C113.848 37.5657 113.746 37.2449 113.644 36.924C112.938 38.5097 110.792 39.2038 109.419 40.1414C109.065 40.3832 108.055 41.3208 107.606 41.1269C106.982 40.8568 107.232 39.4849 107.787 39.2775ZM149.258 44.0582C150.228 44.1224 149.292 44.575 149.559 44.8742C149.529 44.8406 150.143 45.3649 150.063 45.2209C150.171 45.4145 150.432 45.4074 150.565 45.8009C151.024 47.154 149.02 48.5521 148.344 49.3199C147.029 50.8134 146.27 52.7046 144.9 54.1502C144.281 54.8032 143.666 55.2541 142.808 55.4977C142.208 55.6682 141.573 55.4856 141.022 56.0627C140.578 56.5275 140.678 56.7916 140.187 57.0386C139.322 57.4743 138.941 57.0922 138.1 58.0337C137.375 56.0648 139.456 56.068 140.542 54.9677C142.041 53.4487 143.683 51.9162 145.089 50.2912C146.337 48.8474 146.837 47.5815 147.43 45.8275C147.617 45.2745 147.821 44.0887 148.336 43.7416C149.138 43.2014 148.656 44.0181 149.258 44.0582ZM154.03 95.2043C156.576 92.357 159.734 89.8005 163.157 88.0854C164.38 87.4721 166.122 86.6675 167.39 87.6115C168.633 88.5367 168.366 90.3825 167.865 91.6381C167.384 91.4495 167.838 89.6849 167.588 89.2489C167.045 88.2974 165.871 88.8026 165.073 89.1216C164.138 89.4952 163.303 89.9079 162.563 90.586C162.262 90.8607 161.687 91.1071 161.494 91.2961C161.205 91.1759 161.035 91.2634 160.984 91.5584C161.043 91.7392 161.036 91.9171 160.962 92.0922C160.92 92.1479 160.544 91.9196 160.49 91.9653C160.246 92.1741 160.018 92.4198 159.778 92.6137C159.296 93.0033 158.886 93.1876 158.443 93.7307C157.586 94.7804 156.453 95.3954 155.593 96.3954C155.399 96.6216 155.166 97.2012 155.122 97.2519C154.687 97.7595 154.043 98.1611 153.552 98.6986C152.704 99.627 151.798 100.25 150.819 101.046C150.398 101.389 149.906 101.758 149.626 102.234C149.498 102.452 149.426 103.643 149.421 103.648C148.461 104.7 148.648 102.585 148.721 102.32C149.5 99.4664 152.136 97.3242 154.03 95.2043ZM148.791 114.498C148.91 114.946 149.008 115.317 149.13 115.772C148.369 115.147 148.369 115.147 148.791 114.498ZM147.969 115.966C147.689 116.248 147.408 116.528 147.125 116.806C146.502 116.148 148.083 115.853 147.969 115.966ZM147.573 104.636C147.276 105.84 146.186 107.3 145.436 108.251C145.519 108.146 144.797 108.357 144.714 108.405C144.448 108.559 145.087 109.561 144.162 109.114C143.834 109.299 144.48 110.056 144.034 110.394C142.745 107.457 146.264 104.913 147.627 102.733C148.293 103.345 147.741 103.96 147.573 104.636ZM139.201 120.515C140.141 120.756 140.63 120.604 141.265 119.681C141.646 119.127 141.785 118.145 142.658 118.974L142.812 117.908C144.057 118.419 143.952 120.265 144.496 121.288C144.761 120.13 145.388 116.897 147.309 117.416C149.464 117.998 145.876 121.705 145.543 122.614C144.811 121.476 145.099 122.534 144.54 122.694C144.06 122.832 143.311 122.479 142.728 122.511C140.955 122.608 139.397 123.405 137.777 124.081C137.367 122.975 136.957 121.869 136.547 120.764C137.501 120.837 139.473 118.299 139.753 120.144C139.045 120.021 138.846 120.052 138.502 120.696C138.722 120.584 138.955 120.524 139.201 120.515ZM143.182 134.946C143.179 134.938 145.016 135.051 145.18 134.991C146.437 134.532 145.972 133.106 146.229 132.098C146.747 132.575 146.472 133.444 146.632 134.061C146.82 134.786 147.363 135.403 147.413 136.178C147.528 137.929 146.091 137.54 145.002 138.107C144.071 138.591 143.968 139.2 143.182 137.895C142.97 137.542 142.512 136.622 142.559 136.171C142.605 135.723 143.314 135.351 143.182 134.946ZM144.662 142.523L144.154 141.954C145.668 142.417 144.775 141.72 145.123 140.768C146.285 141.541 147.232 142.337 148.152 140.788L149.74 147.193C148.673 147.444 147.297 145.796 146.565 145.23C146.143 144.903 143.798 143.643 145.206 143.276C145.024 143.025 144.843 142.774 144.662 142.523ZM155.029 122.408C154.147 123.246 153.259 123.716 152.299 124.375C151.457 124.953 151.747 125.617 151.017 126.262C150.533 126.691 149.397 127.128 148.798 127.455C147.731 128.038 146.776 128.149 145.679 127.497C145.977 129.901 144.331 130.089 142.282 130.565C141.304 130.792 140.726 131.139 140.021 130.244C139.539 129.632 139.35 128.522 139.95 127.962C140.903 127.071 143.443 127.379 144.666 126.819C145.594 126.394 146.539 124.001 147.684 124.872C147.093 123.931 147.782 123.677 148.295 123.006C148.858 122.271 149.203 121.411 149.785 120.681C150.891 119.294 152.589 117.899 154.16 117.063C155.542 116.327 156.268 116.848 156.475 118.393C156.579 119.17 156.575 120.327 156.14 121.016C156.002 121.236 155.544 121.238 155.406 121.445C155.164 121.805 155.386 122.068 155.029 122.408ZM171.248 103.764C172.351 104.618 172.243 106.412 172.417 107.633C172.662 109.355 172.484 111.021 172.458 112.775C172.43 114.612 171.529 115.809 171.105 117.531C170.633 119.447 170.024 120.461 168.967 122.069C170.114 122.249 168.407 125.675 168.125 126.119C167.82 126.6 165.355 128.818 166.412 128.818C165.829 129.587 165.195 130.376 164.614 131.123C164.385 131.417 163.984 131.533 163.804 131.74C163.437 132.163 163.415 132.539 163.152 133.032C162.753 133.779 162.622 133.58 162.098 134.122C161.736 134.497 161.499 134.991 161.143 135.351C159.997 136.507 159.851 135.56 159.211 134.669C159.112 134.907 158.938 135.057 158.687 135.118C158.487 134.109 159.868 133.091 160.449 132.478C161.4 131.475 162.269 130.369 163.11 129.271C164.911 126.918 166.529 124.419 167.806 121.742C169.164 118.893 170.249 115.81 170.813 112.701C171.243 110.332 171.651 106.268 168.485 105.666C166.183 105.228 163.645 106.626 161.747 107.759C160.59 108.449 159.427 109.135 158.325 109.911C157.129 110.752 156.095 111.943 154.797 112.619C155.507 112.249 153.164 113.361 153.523 113.048C153.355 113.194 153.5 113.641 153.389 113.842C153.245 114.104 152.742 114.363 152.516 114.532C151.921 114.98 150.969 115.437 150.699 116.176C146.921 113.481 154.433 108.697 156.359 107.479C160.178 105.062 166.825 100.34 171.248 103.764ZM181.437 77.5556C181.401 75.6151 182.982 72.966 184.049 71.3835C184.571 70.609 185.405 70.6398 185.711 69.7263C185.888 69.2002 185.656 68.6486 185.709 68.1204C185.78 67.4061 186.089 66.8333 186.447 66.2193C189.677 60.669 193.602 55.7564 197.783 50.9141C199.844 48.5269 201.798 46.048 204.021 43.8054C204.95 42.8689 207.446 39.5019 208.874 39.8387C209.63 40.017 210.07 41.1709 210.411 41.7597C210.976 42.7335 211.596 43.6456 212.282 44.541C214.093 46.9051 216.181 48.9803 218.647 50.656C220.187 51.7032 221.743 52.7209 223.249 53.8181C224.489 54.721 226.363 55.7533 227.248 57.0209C228.134 58.2889 226.833 59.3627 226.123 60.4155C225.018 62.0529 224.002 63.7495 222.893 65.3852C222.452 65.0682 222.566 64.4245 222.264 64.0186C221.996 63.6588 221.617 63.5124 221.247 63.2901C220.537 62.8651 219.841 62.3454 219.201 63.0576C218.079 64.304 219.621 67.2501 221.283 66.9268C221.479 68.1569 218.16 70.1829 217.329 70.8599C214.776 72.9366 212.143 74.742 208.772 74.9299C207.407 75.0057 205.988 74.9022 204.691 74.4456C204.07 74.2269 203.384 73.9266 202.908 73.4499C202.338 72.8791 202.192 72.0298 201.639 71.4647C201.16 70.9744 200.501 70.8989 200.022 70.4069C199.542 69.9145 199.304 69.1367 199.11 68.499C198.729 67.253 198.657 65.9389 198.291 64.69C198.071 63.9388 197.89 62.9346 197.173 63.6563C196.13 64.7049 196.654 68.002 196.921 69.2583C197.302 71.0507 198.197 72.4956 199.135 74.0376C200.152 75.7105 200.527 77.2621 200.709 79.1976C201.05 82.8209 202.09 86.2977 203.708 89.5576C204.389 90.9302 205.205 92.2209 205.94 93.562C206.283 94.1876 207.053 96.3224 207.987 96.3111C209.479 96.2926 207.354 91.9405 207.059 91.2099C205.424 87.1634 203.862 82.9102 203.512 78.5287C205.855 79.1324 208.41 79.7052 210.837 79.3227C209.27 82.8258 210.907 86.3137 210.706 89.9196C210.606 91.7278 210.534 93.3961 210.571 95.199C210.604 96.78 209.89 98.3604 209.273 99.79C208.047 102.629 206.504 106.132 204.228 108.306C202.324 110.125 199.778 110.267 197.292 109.848C191.635 108.895 187.918 104.547 185.544 99.6078C184.018 96.4351 182.852 93.0483 182.129 89.6026C181.291 85.615 181.512 81.6003 181.437 77.5556ZM188.784 50.6812C183.505 46.8615 191.176 42.524 195.081 43.1145C195.997 43.2528 197.682 43.6314 197.596 44.8267C197.526 45.8037 195.896 46.8927 195.271 47.4957C193.487 49.2164 191.671 52.7695 188.784 50.6812ZM227.187 135.553C227.006 135.39 225.529 135.789 226.114 134.915C226.6 134.188 227.949 135.099 228.439 135.285C228.035 135.564 227.684 135.996 227.187 135.553ZM205.206 181.75C204.752 181.806 204.278 180.582 205.913 181.496C205.678 181.581 205.441 181.665 205.206 181.75ZM205.159 201.694C205.215 202.242 205.383 202.604 204.993 203.003C204.664 202.597 204.621 202.024 205.159 201.694ZM205.823 209.934C205.775 210.233 205.726 210.531 205.679 210.829C205.301 210.638 204.924 210.447 204.546 210.256C204.971 210.149 205.397 210.042 205.823 209.934ZM206.285 202.986C206.848 203.196 206.586 202.523 206.995 202.428C207.141 203.129 206.961 203.729 206.558 204.307C206.52 204.171 206.314 202.996 206.285 202.986ZM220.672 153.259C219.882 153.158 219.763 153.993 219.174 154.317C218.794 154.526 217.637 154.369 217.421 154.769C217.706 154.851 217.991 154.934 218.276 155.016C217.624 155.368 216.971 155.72 216.318 156.071C217.888 156.071 219.524 155.322 221.083 155.542C221.742 155.635 222.225 155.858 222.638 156.394C222.889 156.719 223.11 157.243 223.15 157.641C223.194 158.072 222.858 158.37 222.917 158.575C223.62 158.595 223.537 159.747 223.379 160.217C223.037 161.235 221.678 162.83 220.461 162.184C220.97 162.907 220.84 163.32 220.087 163.739C220.155 163.5 220.206 163.082 219.821 163.124C219.722 163.524 219.76 164.159 219.433 164.461C219.066 164.799 218.74 164.404 218.389 164.624C217.974 164.885 218.099 165.295 217.772 165.577C217.341 165.951 217.279 165.686 216.763 165.758C215.981 165.869 216.48 165.383 215.854 166.016C215.637 166.235 215.674 166.803 215.323 167.123C214.649 167.736 212.85 168.376 212.204 167.589C210.651 170.05 205.996 170.641 203.829 168.698C200.374 165.599 206.817 159.297 208.944 157.3C211.079 155.296 213.451 153.564 215.85 151.893C217.214 150.944 218.613 150.082 220.042 149.236C220.923 148.714 222.03 147.761 223.113 147.852C224.084 147.935 224.914 148.688 225.936 148.838C226.676 148.945 228.113 149.123 227.18 150.127C226.743 150.595 225.03 151.353 224.446 151.467C224.103 151.534 223.742 151.406 223.402 151.475C222.828 151.593 222.433 152.079 221.807 152.017C222.005 152.945 221.644 153.383 220.672 153.259ZM230.899 118.792C230.899 119.518 229.573 119.337 229.296 119.09C228.84 118.684 228.824 117.471 228.655 116.919C229.426 117.113 230.898 117.822 230.899 118.792ZM220.218 94.8289C223.003 92.54 225.931 90.4414 229.027 88.5931C230.135 87.9312 231.7 86.5962 233.077 86.7628C233.655 86.833 234.849 87.4963 234.414 88.2276C234.333 88.3644 233.69 88.4193 233.491 88.5186C233.266 88.631 233.09 88.9408 232.881 89.0939C231.435 90.1549 229.697 90.8069 228.246 91.8934C227.053 92.7856 225.941 93.7839 224.658 94.5496C223.426 95.2837 222.139 95.7485 220.97 96.5617C220.993 96.5454 219.45 97.1005 219.752 97.2015C218.397 96.7481 219.829 95.1497 220.218 94.8289ZM238.786 93.9764C240.44 93.317 242.059 92.5169 243.791 92.0738C244.655 91.8526 245.543 91.6863 246.437 91.786C246.589 91.5197 246.792 91.4609 247.045 91.6094C247.242 91.9129 247.503 92.1458 247.826 92.3085C248.319 92.6878 250.136 93.1837 249.773 94.0214C249.533 94.5755 247.711 94.6215 247.212 94.746C245.705 95.1214 244.299 95.9658 242.747 96.1732C242.601 96.1927 242.126 96.0161 242.12 96.0172C241.515 96.1494 241.01 96.7779 240.49 97.0792C239.37 97.7276 237.76 97.8364 236.956 98.9556C239.561 100.721 241.821 98.9701 244.111 97.6369C245.483 96.8385 246.955 96.2625 248.454 95.7506C249.238 95.4833 250.028 95.2054 250.822 94.9707C251.151 94.8509 251.489 94.7648 251.836 94.7119C252.158 94.6478 252.389 94.7651 252.528 95.0643C253.488 95.0324 253.57 94.4301 254.148 95.5535C254.963 97.1374 253.717 97.0569 252.545 97.2515C250.921 97.5209 249.269 98.1278 247.669 98.5302C247.3 98.6231 244.063 99.3735 244.059 99.4001C243.912 100.422 253.202 99.4756 253.999 99.3225C255.407 99.0516 256.916 98.2827 258.373 98.4681C259.492 98.6103 262.04 100.252 260.256 101.342C259.905 99.6603 258.699 101.049 258.069 101.617C257.23 102.372 256.029 102.299 254.878 102.595C253.305 103 249.278 104.516 248.16 102.583C248.514 104.277 242.094 103.416 241.211 103.36C240.351 103.305 239.24 103.488 238.409 103.243C237.866 103.083 237.564 102.73 237.054 102.651C236.929 102.785 236.779 102.877 236.604 102.926C236.346 102.795 236.112 102.628 235.904 102.427C234.184 101.637 231.524 101.2 232.48 98.6826C233.381 96.3086 236.601 94.8477 238.786 93.9764ZM254.901 95.4436C254.944 95.2958 254.987 95.148 255.029 94.9998C255.035 95.4532 256.116 95.6467 255.991 96.2341C255.714 97.5348 254.466 95.5804 254.359 95.3674C254.54 95.3929 254.72 95.4181 254.901 95.4436ZM261.502 97.6046C261.627 98.1374 263.065 99.2718 262.709 99.5334C262.142 98.7627 260.575 99.1126 261.502 97.6046ZM237.249 146.22C237.775 145.176 239.367 146.953 239.199 145.171C240.064 145.249 239.524 145.908 240.561 145.618C240.949 145.51 241.212 145.079 241.685 144.98C241.812 144.953 242.357 144.997 242.545 144.991C243.169 144.972 245.613 144.902 243.931 144.085C244.872 143.462 244.988 143.778 245.838 144.348C245.62 143.169 246.87 143.839 247.452 143.986C247.037 143.313 248.067 142.598 248.402 142.143C248.282 142.843 248.345 143.627 249.358 143.18C249.61 143.068 249.554 142.573 249.754 142.493C250.121 142.345 250.325 142.614 250.457 142.599C250.586 142.584 250.859 142.657 251.131 142.554C251.484 142.421 251.314 141.947 251.762 141.876C252.054 141.831 252.267 142.26 252.623 142.263C252.806 142.265 253.111 142.079 253.25 142.089C253.274 142.091 253.449 141.671 253.662 141.661C253.975 141.646 254.102 142.483 254.216 142.646C254.764 143.422 255.491 143.929 256.331 144.343C254.812 145.735 251.749 145.588 249.839 146.057C248.805 146.311 247.922 146.678 246.976 147.151C246.748 147.3 246.551 147.482 246.386 147.698C246.252 147.609 246.118 147.52 245.984 147.431C245.465 147.463 244.975 147.206 244.391 147.305C242.588 147.609 241.176 148.96 239.343 149.261C238.519 149.396 237.843 149.585 237.306 148.871C236.836 148.245 236.914 146.885 237.249 146.22ZM234.776 137.899C235.185 138.244 234.693 139.369 235.485 139.247C236.046 139.16 235.934 138.289 236.375 138.105C236.954 137.862 237.304 138.437 237.848 138.384C238.863 138.284 238.805 137.398 237.948 137.009C238.839 136.773 239.125 137.827 239.914 137.818C240.951 137.805 240.704 136.582 241.586 136.379C241.968 136.291 241.841 136.853 242.089 136.922C242.585 137.062 242.93 136.822 243.369 136.612C243.762 136.424 244.042 136.06 244.471 135.937C244.666 135.88 245.163 135.983 245.306 135.879C245.595 135.668 245.854 134.848 246.138 134.739C246.08 134.761 247.012 135.229 247.146 135.273C247.064 135.619 246.874 135.66 246.576 135.396C246.576 136.178 248.749 136.421 248.303 135.455C249.478 135.942 248.603 136.192 248.486 136.871C248.439 137.144 248.28 137.136 248.327 137.425C248.349 137.558 248.965 137.443 248.957 137.625C248.905 138.791 245.187 139.15 244.482 139.253C243.024 139.466 241.644 139.824 240.238 140.266C239.191 140.594 237.387 141.535 236.273 141.477C234.671 141.393 234.462 139.303 234.776 137.899ZM231.197 125.994C230.806 124.696 232.06 122.016 233.692 122.351C234.093 122.433 234.192 122.765 234.503 122.913C234.938 123.119 235.645 123.011 236.021 123.224C236.866 123.702 236.44 124.92 237.287 125.361C235.95 125.685 231.818 128.057 231.197 125.994ZM232.744 131.036C233.319 130.727 234.253 130.687 234.645 130.092C234.841 130.227 235.211 131.05 235.561 130.924C235.725 130.865 235.894 130.42 235.882 130.42C236.195 130.411 236.257 129.988 236.734 130.036C237.172 130.08 237.663 130.606 238.053 130.803C237.986 129.497 238.321 129.372 239.38 128.673C239.612 128.52 239.806 127.945 240.02 127.712C239.815 129.083 240.332 129.09 241.426 129.296C242.798 129.554 243.653 130.291 244.202 131.616C243.033 131.388 241.525 131.663 241.064 132.919C240.131 131.215 236.74 133.567 235.643 134.049C234.829 134.407 233.882 134.887 233.199 134.054C232.718 133.467 232.994 132.761 233.004 132.239C233.007 132.075 233.176 132.066 233.16 131.822C233.14 131.511 232.735 131.386 232.744 131.036ZM245.225 157.843C244.917 157.96 243.327 158.026 243.317 157.5C243.309 157.034 246.122 157.503 245.225 157.843ZM242.644 156.14C241.442 156.882 240.096 154.27 239.654 153.518C240.915 153.679 241.531 152.624 242.274 151.822C242.981 153.371 244.054 152.552 245.184 152.035C246.515 151.425 247.974 151.42 249.338 150.931C249.764 150.778 250.156 150.551 250.572 150.376C250.906 150.251 251.24 150.123 251.572 149.991C251.808 149.778 251.892 149.516 251.823 149.206C251.712 148.945 251.788 148.78 252.052 148.712C252.366 148.806 252.686 148.86 253.014 148.875C253.54 148.771 254.295 148.275 253.661 147.74C254.34 147.123 255.021 147.737 255.676 148.007C255.521 147.564 255.366 147.12 255.21 146.677C255.535 146.814 256.499 148.162 256.597 148.154C257.22 148.107 257.155 147.271 257.514 146.934C257.72 147.188 257.779 149.089 258.592 148.449C258.939 148.175 258.191 147.243 258.007 147.03C258.936 147.24 259.748 148.35 259.999 149.211C259.558 149.275 259.15 149.186 258.775 148.945C258.536 150.144 260.756 149.658 261.115 150.285C261.82 151.512 257.24 152.364 256.644 152.478C255.45 152.705 254.041 152.79 252.946 153.319C251.898 153.826 251.649 153.971 250.424 154.066C249.026 154.174 247.661 154.635 246.309 154.994C245.134 155.305 243.685 155.499 242.644 156.14ZM268.203 112.222C269.307 111.825 273.026 109.763 273.973 110.68C273.873 110.583 274.656 112.2 274.648 112.098C274.715 112.939 274.695 113.278 273.659 113.681C272.918 113.969 272.272 113.356 271.605 113.6C270.872 113.867 271.384 114.341 271.007 114.672C270.594 115.034 269.797 115.191 269.283 115.35C268.023 115.739 266.754 116.064 265.501 116.483C262.951 117.335 260.251 118.129 257.631 118.732C255.673 119.182 252.349 120.302 250.545 118.979C250.368 119.731 249.938 119.628 249.34 119.738C248.871 119.824 248.023 120.056 247.607 120.068C246.913 120.088 244.984 119.906 245.25 118.933C245.176 119.201 246.75 118.284 246.477 118.227C247.146 118.368 246.929 118.031 247.476 117.844C248.191 117.6 248.939 117.613 249.669 117.354C251.509 116.702 253.052 115.855 254.994 115.447C259.431 114.513 263.923 113.762 268.203 112.222ZM90.3552 212.753C89.9957 212.763 89.716 211.741 90.8096 212.471C90.6583 212.565 90.5069 212.659 90.3552 212.753ZM81.7162 211.432C81.2274 211.557 81.0324 211.284 81.132 210.614C81.8137 210.344 82.0083 210.617 81.7162 211.432ZM75.0468 210.064C74.9217 209.466 75.3648 209.331 75.7664 209.063C75.726 209.855 75.726 209.855 75.0468 210.064ZM58.2658 205.145C57.5898 204.997 56.6891 204.336 56.5342 205.446C56.4211 205.189 55.844 203.98 56.0917 203.7C56.2211 203.554 56.711 204.231 56.6589 204.164C57.2506 202.967 58.2705 204.411 58.8405 204.838C58.649 204.941 58.4573 205.043 58.2658 205.145ZM234.029 72.8859C234.262 72.3924 234.537 72.2357 234.854 72.4162C234.357 73.5704 232.674 74.1961 234.029 72.8859ZM245.723 62.0512C246.14 62.8328 245.513 63.1632 245.066 63.813C245.327 63.1122 245.509 62.6265 245.723 62.0512ZM296.55 138.353C298.054 138.353 301.257 137.559 302.164 139.278C302.764 138.11 303.446 140.301 303.967 140.652C304.025 140.692 304.4 140.405 304.575 140.511C304.838 140.67 305.065 141.103 305.215 141.361C305.67 142.138 305.865 143.062 306.117 143.917C303.49 143.917 300.797 143.305 298.173 143.083C296.45 142.937 294.761 142.933 293.036 143.026C292.694 143.044 292.013 142.931 291.72 142.996C291.422 143.061 290.882 143.668 290.554 143.57C291.064 144.528 297.597 146.846 298.095 145.785C297.505 145.428 296.193 145.154 296.194 144.29C296.195 143.323 297.425 143.325 298.076 143.353C299.501 143.415 301.888 143.89 302.472 145.371C302.722 146.007 302.799 147.606 302.524 148.219C302.347 148.615 302.046 149.091 301.569 149.172C301.374 149.205 301.093 148.945 301.063 148.951C300.085 149.159 298.276 149.944 297.209 148.837C296.44 149.832 292.737 148.745 291.603 148.37C289.62 147.713 286.889 146.812 285.684 144.961C284.216 142.706 287.201 140.8 288.915 139.883C291.258 138.63 293.935 138.355 296.55 138.353ZM306.558 143.568C307.019 143.698 307.48 143.829 307.941 143.959C307.817 144.767 305.999 144.127 306.558 143.568ZM320.493 172.947C320.634 169.709 319.698 166.857 319.158 163.725C319.024 162.949 319.16 161.591 318.571 160.953C318.007 160.343 316.75 160.839 316.7 159.76C316.145 160.41 316.201 160.545 315.517 159.798C315.642 160.119 315.66 160.444 315.572 160.776C315.147 160.533 313.609 159.725 313.739 160.83C312.474 160.55 312.841 159.759 312.119 159.155C312.017 159.07 311.605 159.374 311.445 159.244C311.155 159.009 311.011 158.796 310.766 158.493C310.456 158.869 310.032 159.141 309.652 159.438C309.431 158.957 309.001 158.603 308.485 158.486C308.968 159.498 310.162 160.807 308.524 161.382C307.546 161.725 305.944 161.305 304.908 161.385C301.069 161.683 296.864 160.846 293.152 159.931C289.339 158.992 285.483 157.665 282.053 155.727C281.322 155.314 280.862 154.825 280.232 154.312C279.62 153.814 279.175 153.735 278.44 153.416C277.116 152.843 275.905 151.923 274.898 150.898C272.732 148.693 270.72 145.81 271.323 142.582C271.924 139.365 274.136 136.851 276.502 134.733C279.296 132.231 282.452 130.142 285.8 128.457C287.298 127.705 291.128 124.877 292.607 126.532C293.552 127.589 293.021 128.937 291.729 129.172C291.41 129.231 291.077 129.017 290.755 129.163C290.291 129.375 290.454 129.624 290.262 129.8C289.929 130.106 289.576 130.583 289.078 130.849C287.342 131.774 285.664 132.508 284.005 133.635C283.24 134.154 282.503 134.377 281.829 134.831C281.158 135.281 281.006 136.027 280.104 135.567C280.425 136.879 278.497 138.283 277.741 139.087C276.57 140.331 275.167 141.919 275.713 143.76C276.782 147.364 281.614 150.101 284.707 151.685C288.566 153.662 292.821 155.235 297.118 155.887C299.254 156.21 301.462 156.41 303.614 156.615C305.29 156.775 307.861 156.19 309.067 157.699C309.104 155.939 314.6 156.095 315.77 155.87C313.425 147.853 308.82 140.725 303.896 134.066C301.48 130.796 299.107 127.434 296.353 124.438C293.338 121.157 289.893 118.225 286.62 115.206C280.2 109.285 272.939 104 265.551 99.3452C258.18 94.701 250.546 90.1301 242.47 86.8188C233.246 83.0371 223.536 80.5496 213.815 78.4312C215.133 76.7509 217.278 75.9313 218.967 74.7019C219.558 74.2716 220.357 73.2386 221.125 73.0975C221.957 72.9443 222.611 73.8391 223.203 74.2882C224.902 75.5772 226.077 75.0298 228.024 74.9522C229.188 74.9058 231.946 75.5541 232.437 73.9791C233.09 74.8483 232.143 75.5453 231.658 76.1826C232.011 76.6747 232.295 76.1642 232.644 76.0873C232.751 75.9983 232.858 75.909 232.966 75.82C233.139 75.5697 233.295 75.5683 233.433 75.815C233.641 76.1277 233.85 76.0586 234.061 75.6073C234.118 75.5711 234.176 75.5346 234.234 75.4985C234.485 75.3645 234.728 75.1525 234.962 74.9855C236.731 73.7218 238.307 72.6452 240.259 71.7143C241.898 70.933 241.017 69.4381 242.098 68.3824C242.342 68.1435 242.754 68.2633 243.015 68.0609C243.271 67.862 243.31 67.6365 243.497 67.4235C243.946 66.9112 243.411 66.3168 244.557 66.9439L244.144 64.618C246.39 66.7975 246.381 60.5258 246.688 59.5977C246.648 59.7204 246.89 58.7707 246.89 58.7788C246.956 56.8968 247.213 55.5328 245.008 55.4236C245.843 54.8986 246.098 55.9238 246.483 54.8624C246.676 54.3307 246.074 53.4168 247.034 53.7596C247.236 52.6295 247.036 51.7149 246.785 50.6167C246.527 49.4926 246.678 48.7425 246.69 47.6184C246.703 46.3433 246.106 45.0618 245.915 43.8062C245.766 42.8228 245.92 41.2719 244.649 41.6331C244.47 41.3534 245.098 40.4931 245.072 40.0677C245.033 39.4069 244.315 38.7355 244.112 38.101C243.813 38.4094 243.392 38.5122 242.986 38.3729C243.368 37.5107 243.009 37.2211 242.644 36.4777C242.434 36.052 242.561 35.5819 242.112 35.2767C241.855 35.1016 241.417 35.3965 241.216 35.1913C240.784 34.7517 240.943 34.1686 240.646 33.5893C240.274 32.863 239.423 32.3082 238.836 31.763C235.539 28.6984 231.958 26.3563 227.572 25.1588C223.148 23.9507 217.99 23.5179 213.58 24.9114C211.818 25.4683 210.253 25.4112 208.667 26.4513C208.152 26.7888 208.097 26.6984 207.836 27.2609C207.775 27.3921 208.323 27.7413 207.988 27.9557C207.623 28.1886 207.221 27.715 207.035 27.3219C204.74 28.9831 202.59 31.1976 201.283 33.7368C199.984 36.2601 199.865 39.2243 199.369 41.9663C197.081 39.353 193.987 38.1002 190.624 39.3566C187.692 40.4512 185.42 42.8575 184.846 45.9749C184.496 47.8754 184.878 49.7999 185.742 51.5146C186.115 52.2555 186.567 53.0758 187.253 53.5745C187.796 53.9687 188.725 53.9134 188.981 54.6245C189.373 55.7139 187.11 58.0667 186.523 59.0202C185.46 60.7459 184.473 62.5279 183.722 64.4128C181.027 60.6066 178.448 56.4495 175.384 52.94C172.492 49.6276 169.045 46.657 165.665 43.8572C158.648 38.0464 151.352 32.5872 143.502 27.9579C136.194 23.6472 127.366 21.2541 118.848 22.1002C110.525 22.9273 104.154 28.1908 98.7921 34.2615C88.4828 45.9338 82.1685 62.5705 81.5517 78.1082C81.3663 82.7758 81.7219 87.3825 82.8747 91.9097C83.4238 94.0653 83.344 96.1856 83.6631 98.3689C84.0232 100.832 84.6461 103.286 85.2484 105.699C87.5426 114.89 90.4658 124.073 93.7459 132.96C95.4514 137.581 97.5149 142.099 100.306 146.174C101.596 148.056 103.266 149.528 104.654 151.316C106 153.049 106.355 155.177 106.651 157.304C107.361 162.404 107.832 167.526 108.258 172.656C108.44 174.83 108.651 176.985 108.939 179.143C109.19 181.026 108.559 180.933 106.975 181.572C107.296 179.881 99.7308 181.032 99.0165 181.147C98.2391 181.273 97.416 181.275 96.8038 181.375C96.1192 181.486 95.4492 181.647 94.6609 181.625C93.502 181.591 91.3322 181.295 90.8898 182.775C90.5853 181.06 88.5739 182.935 90.062 182.616C88.5345 182.787 86.9758 182.503 85.4299 182.647C83.6581 182.811 81.8711 182.968 80.1118 183.235C78.887 183.42 77.7182 183.892 76.4914 184.029C74.9213 184.204 73.2828 184.188 71.6976 184.328C65.8502 184.843 59.7895 186.119 54.1055 187.579C52.818 187.91 51.3387 188.145 50.1086 188.676C49.7793 188.818 49.4829 189.136 49.1674 189.257C48.6385 189.462 48.7109 189.321 48.2412 189.414C45.4268 189.977 42.5236 190.896 39.7096 191.617C38.1488 192.017 35.6099 192.378 34.3366 193.467C33.7658 193.955 33.2671 194.82 34.1816 195.375C34.9123 195.817 35.9552 195.111 36.5465 194.728C36.0197 196.101 35.026 196.785 35.5627 198.347C35.9864 199.582 36.9428 201.103 38.4143 200.307C38.6114 200.765 38.6911 201.677 39.2714 201.845C39.7929 201.997 40.1704 201.336 40.6813 201.491C40.8642 201.547 40.7947 201.893 40.9585 201.983C41.2406 202.138 41.5267 202.204 41.85 202.314C42.1279 202.408 42.5753 202.602 42.8653 202.622C43.0493 202.635 43.4828 202.321 43.4814 202.321C43.9039 202.385 44.1312 203.193 44.4353 203.427C44.8302 203.73 45.1564 203.799 45.6509 203.909C46.6789 204.138 48.004 204.529 48.6825 203.477C48.5272 204.228 49.5492 204.154 50.0001 204.25C49.9502 203.854 49.7314 203.491 49.394 203.274C50.4021 203.34 49.9934 204.343 50.7386 204.607C51.2696 204.796 51.2093 204.317 51.6156 204.264C52.1509 204.194 52.5571 204.583 53.393 204.224C53.5741 205.029 53.6404 205.841 54.6291 205.961C55.2094 206.032 56.5625 204.984 56.4859 205.856C57.7823 205.476 58.2744 205.733 58.9518 206.875C59.0663 206.174 59.6204 206.377 60.1287 206.334C60.9345 206.265 60.955 206.33 61.5796 205.874C61.6367 205.832 62.128 204.707 62.3464 205.406C62.4446 205.72 61.7955 206.457 61.5552 206.645C61.8537 206.796 62.8317 207.324 63.2078 207.227C63.5332 207.143 63.5343 206.587 63.9253 206.558C63.8296 206.878 63.7342 207.198 63.6382 207.518C64.3989 207.628 65.0345 207.119 65.6354 206.746C66.2082 208.195 67.8456 207.379 68.7361 208.469C69.2072 209.046 69.2292 209.484 70.1268 209.634C71.0453 209.789 71.8475 209.386 72.6281 210.143C72.3807 209.673 71.7642 209.283 72.3768 208.778C72.7936 209.37 73.0088 210.082 73.4895 210.632C73.5558 210.353 73.6221 210.073 73.6884 209.793C74.9415 211.133 76.519 211.145 78.1241 211.888V210.907C79.2734 212.661 79.3347 211.551 80.7077 210.835C80.6145 211.35 80.5209 211.866 80.4276 212.382C81.4156 212.307 82.3387 213.478 83.1498 212.483C83.6397 213.305 84.2335 212.901 85.0364 213.162C85.493 213.31 85.8329 213.76 86.2771 213.922C86.9432 214.166 87.1421 214.155 87.7692 214.367C88.3268 214.556 88.6437 214.923 89.3417 215.041C89.7951 215.117 90.2063 215.112 90.6402 215.091C90.8079 215.083 90.7526 214.705 91.1251 214.793C91.7012 214.93 92.1301 215.652 92.5449 216.023C93.1688 214.454 94.9157 216.555 95.7601 216.835C95.841 216.433 95.8264 215.948 96.1175 215.618C96.4592 216.367 96.5896 216.996 97.299 217.478C97.7084 217.756 98.3096 217.955 98.7825 218.057C99.0814 218.121 99.6245 218.044 99.8123 218.137C100.133 218.294 100.251 218.713 100.574 218.752C100.765 218.775 101.047 218.274 101.19 218.313C101.842 218.491 102.204 219.284 102.863 219.712C104.823 220.987 107.289 221.111 109.473 221.391C110.021 221.461 110.1 221.311 110.546 221.633C110.783 221.804 110.675 222.327 110.967 222.473C112.068 223.025 112.069 221.848 112.3 221.117C112.664 221.597 112.726 222.231 113.225 222.613C113.496 222.606 113.769 222.612 114.04 222.632C114.193 222.807 114.294 223.008 114.341 223.237C115 223.682 115.747 223.527 116.428 223.862C116.651 223.971 117.047 224.634 117.322 224.824C117.815 225.165 118.576 225.347 119.139 225.495C120.318 225.806 122.01 225.393 122.712 226.625C123.644 225.626 123.283 226.819 123.916 227.07C124.29 227.218 124.852 226.629 125.266 226.688C126.012 226.793 126.281 227.601 126.52 228.188C126.974 228.087 126.662 226.801 126.65 226.519C127.214 226.453 127.34 227.94 127.437 228.267C128.329 227.837 126.865 226.501 127.824 226.073C127.736 227.211 128.643 228.148 127.023 228.311C127.247 228.997 132.472 229.758 132.835 229.153C132.916 230.272 133.667 229.227 133.944 228.844C133.975 229.497 133.753 230.423 134.486 230.726C134.983 230.932 136.106 230.399 136.301 229.912C136.524 230.657 136.898 230.633 137.362 231.106C137.681 231.431 137.891 231.995 138.226 232.267C138.842 232.768 139.987 232.691 140.704 232.579C142.108 232.36 141.942 232.091 142.442 233.55C142.556 232.997 142.91 231.838 143.528 232.699C143.922 233.246 143.084 234.452 142.842 234.932C143.383 234.635 143.92 234.283 144.535 234.155C144.57 234.345 144.601 234.747 144.511 234.922C144.529 234.887 145.186 235.327 145.429 235.449C145.371 235.42 145.622 234.324 145.614 234.36C146.481 234.894 145.88 235.916 146.647 236.443C146.845 236.58 147.31 236.421 147.55 236.504C147.967 236.648 148.328 237.039 148.699 237.268C148.403 236.871 148.445 236.204 148.465 235.746C148.654 235.85 148.789 236.24 148.979 236.271C149.051 236.283 149.797 236.382 149.792 236.378C150.569 236.922 150.409 236.99 149.742 237.644C149.98 238.019 150.976 237.368 151.246 237.26C151.302 237.406 151.317 237.938 151.422 238.033C151.487 238.191 151.551 238.348 151.616 238.505C151.815 238.357 152.028 238.307 152.256 238.357C152.399 238.407 153.523 238.864 153.599 238.707C153.353 238.628 153.13 238.506 152.931 238.342C153.58 237.759 154.006 237.449 154.603 238.291C154.679 238.397 154.42 238.778 154.497 238.916C154.782 239.431 155.368 239.84 155.766 240.259C155.931 239.68 155.548 238.231 156.463 238.284C157.194 238.326 157.751 240.097 157.497 240.648C157.788 240.33 159.524 240.014 159.851 240.114C160.778 240.394 160.518 241.251 161.657 239.996C162.434 240.532 161.75 240.735 161.89 241.389C162.095 241.432 162.289 241.381 162.473 241.237C162.336 244.015 164.386 241.892 165.717 242.317C166.239 242.483 166.373 243.076 166.934 243.25C167.23 243.341 167.56 243.125 167.849 243.178C168.08 243.145 168.31 243.104 168.538 243.055C168.827 242.91 168.963 243.072 168.945 243.542C169.41 243.783 169.235 243.877 169.778 243.924C170.129 243.954 170.451 243.59 170.849 243.652C171.536 243.76 171.445 244.287 171.884 244.562C172.279 244.81 172.724 244.802 173.21 244.754C173.458 244.73 174.154 244.41 174.238 244.409C174.757 244.402 174.475 244.292 175.099 244.738C175.585 245.086 175.789 245.312 176.385 245.472C177.069 245.655 178.282 246.056 178.742 245.562C179.364 246.493 179.85 245.81 180.671 245.871C181.09 245.903 181.157 246.067 181.531 246.132C182.136 246.237 182.891 246.146 183.536 246.353C184.551 246.679 184.665 246.843 185.702 246.887C185.889 246.814 186.077 246.74 186.263 246.667C186.319 246.979 186.467 247.234 186.705 247.432C187.285 247.553 187.666 247.261 188.145 246.94C188.502 248.05 189.659 248.147 190.648 248.294C192.245 248.529 193.773 248.658 195.313 249.183C196.613 249.626 197.916 250.124 199.167 250.691C200.268 251.191 201.307 251.938 202.553 251.587C205.376 250.792 208.111 247.895 210.472 246.231C213.269 244.261 216.285 242.638 219.208 240.866C230.842 233.814 243.134 227.848 254.605 220.534C260.868 216.54 266.679 211.795 273.405 208.565C272.447 212.521 270.817 216.537 271.112 220.68C271.23 222.349 271.722 224.321 273.017 225.486C274.617 226.927 276.4 226.01 277.93 224.98C281.211 222.775 283.398 219.557 285.853 216.535C288.756 212.961 291.008 209.12 293.141 205.046C293.652 205.763 293.263 206.964 293.27 207.759C293.28 208.774 293.554 209.752 294.024 210.657C295.239 212.995 297.55 213.562 299.639 211.96C303.658 208.878 305.99 203.389 308.144 198.968C309.372 201.253 311.116 204.129 314.065 202.497C316.499 201.151 317.929 198.141 318.674 195.593C320.847 188.153 320.159 180.574 320.493 172.947Z" fill="black"/>
<path fill-rule="evenodd" clip-rule="evenodd" d="M316.801 128.257C316.524 127.583 316.402 127.693 316.912 127.039C317.31 127.431 316.992 127.755 316.801 128.257ZM329.102 169.064C328.322 166.845 328.804 164.435 328.33 162.159C328.112 161.114 327.769 160.101 327.645 159.038C327.59 158.566 327.17 156.442 327.456 156.108C326.575 155.575 326.573 155.18 326.369 154.135C326.683 153.802 326.643 153.518 326.251 153.283C325.994 152.972 325.737 152.661 325.48 152.351C326.603 152.9 325.939 151.494 325.824 150.684C325.733 150.044 325.673 149.376 325.459 148.762C325.196 148.008 324.612 147.627 325.827 147.627C325.428 147.172 324.83 146.702 324.63 146.146C324.344 145.344 324.816 144.285 324.232 143.577C323.906 143.182 322.227 143.027 322.522 142.175C322.672 141.74 323.352 142.064 323.563 141.76C324.391 140.563 321.947 140.067 321.827 139.558C321.672 138.898 322.554 138.75 322.609 138.133C322.661 137.529 321.722 136.537 321.474 135.996C321.136 136.079 320.765 136.614 320.378 136.358C320.305 136.31 320.415 134.219 320.327 133.941C320.241 133.668 320.064 132.944 320.001 132.81C319.75 132.278 319.033 132.019 318.919 131.391C318.851 131.015 320.321 130.448 318.635 130.43C319.241 129.363 318.131 128.714 317.728 127.803C317.209 126.63 316.903 125.364 316.37 124.186C315.851 123.04 315.272 121.954 314.524 120.941C313.848 120.024 313.556 119.142 313.015 118.173C312.907 118.088 312.799 118.003 312.691 117.918C312.24 117.983 312.095 117.778 312.257 117.302C311.912 116.791 311.656 116.246 311.351 115.712C310.998 115.092 310.521 114.587 310.156 113.984C309.671 113.185 309.528 112.283 308.981 111.481C308.307 110.495 307.55 109.625 306.926 108.601C306.144 107.319 305.278 106.522 304.294 105.529C303.826 105.056 303.769 103.875 303.195 103.204C302.57 102.472 301.953 102.274 301.52 101.314C300.956 100.065 300.129 99.4692 299.324 98.3898C298.66 97.4993 298.336 96.4759 297.604 95.6144C296.975 94.8746 296.26 94.1986 295.589 93.4971C294.741 92.6112 294.115 91.5346 293.232 90.6923C293.359 90.8139 292.464 90.1042 292.509 90.1269C292.311 90.0259 291.671 89.9447 291.764 89.9996C290.432 89.2166 288.763 86.3505 286.758 87.8691C285.704 88.6678 286.209 90.1326 286.946 90.9281C287.262 91.2698 288.905 92.9543 289.26 92.2439C289.643 92.787 290.823 95.4124 291.805 94.6602C291.705 95.5574 292.224 95.2596 292.568 95.8661C292.793 96.2664 292.683 96.4627 292.848 97.0874C293.301 98.8045 295.028 100.482 295.948 101.979C298.237 105.706 300.763 109.24 303.055 112.971C305.239 116.527 307.685 119.901 309.78 123.505C312.164 127.603 315.133 131.471 316.928 135.889C316.989 136.038 317.488 136.273 317.611 136.496C317.827 136.883 317.781 137.553 317.92 137.992C318.402 139.513 319.182 141.011 320.072 142.271C320.853 143.377 320.91 144.88 321.447 146.177C322.204 148.005 323.004 149.814 323.74 151.651C324.886 154.511 325.662 157.252 326.453 160.237C326.966 162.172 327.374 164.106 327.538 166.104C327.688 167.941 327.725 169.855 328.405 171.595C328.868 170.878 329.415 169.951 329.102 169.064Z" fill="black"/>
<path fill-rule="evenodd" clip-rule="evenodd" d="M67.0838 208.434C66.2606 208.268 65.4861 208.046 65.3116 207.101C65.1922 207.547 65.0731 207.992 64.9536 208.438C65.9558 208.665 66.9583 208.892 67.9604 209.119C67.7264 208.707 67.5556 208.53 67.0838 208.434Z" fill="black"/>
<path fill-rule="evenodd" clip-rule="evenodd" d="M69.2924 53.3294C69.3548 53.0628 69.4356 52.8015 69.5352 52.5466C69.6029 52.7951 69.9348 53.3326 69.7416 53.5669C69.4955 53.8643 69.2467 53.6959 69.2924 53.3294ZM73.3276 45.6518C73.5977 45.7709 74.1823 45.7939 74.5176 45.8946C73.6477 46.6429 73.4946 46.4228 72.3698 46.3359C72.3198 45.5787 72.6275 45.3437 73.3276 45.6518ZM65.7872 64.3966C65.9038 64.3998 66.0208 64.4026 66.1381 64.4055C66.1452 64.0758 66.1367 63.7465 66.1119 63.4175C67.298 63.6766 66.6266 61.6039 66.2541 61.1743C67.4111 61.2129 67.9748 57.5496 68.3413 56.8438C68.6667 56.2171 69.0354 55.9746 69.2733 55.2103C69.4814 54.5414 69.7065 53.9394 70.0067 53.3067C70.6966 51.8518 71.6016 50.5306 71.4346 48.8351C72.0192 50.1074 72.5332 48.8372 72.904 48.2289C73.5013 47.2488 74.9586 45.9981 75.1135 44.834C75.2504 43.8091 74.4889 43.7549 74.9384 42.8045C75.3929 41.8424 75.7665 41.9388 76.5627 41.6311C77.0923 41.4262 77.1976 41.6751 77.5712 41.0065C77.8133 40.5737 77.7279 40.2511 78.0381 39.8962C78.1661 40.0075 78.3118 40.0536 78.4748 40.0345C78.7265 39.7023 78.8917 39.3322 78.9701 38.9242C79.1753 38.3733 79.2746 37.8675 79.5837 37.3428C79.8768 36.8458 80.3972 35.5161 80.673 35.2765C80.9658 35.022 82.6266 35.1514 82.6195 35.1606C83.3055 34.2977 82.0467 33.4381 83.7897 33.62C83.4455 32.979 84.6547 32.1835 85.0056 31.8269C85.8823 30.9368 85.9521 30.5249 86.1372 29.4054C86.2311 28.8347 85.6178 28.9006 86.4399 28.7705C86.7799 28.717 87.106 29.1516 87.3513 29.0878C88.4343 28.807 87.3013 28.8605 87.6002 28.4192C87.6945 28.2792 88.1762 27.7141 88.1716 27.7201C88.1482 27.7485 88.2801 27.2285 88.3893 27.0948C88.5963 27.0771 88.8001 27.0409 89.0004 26.9863C89.1021 26.7807 89.1922 26.5702 89.2702 26.3546C90.054 25.701 91.2266 25.4085 91.7686 24.6903C92.1192 24.2259 92.0143 23.7711 92.4673 23.3081C92.8988 22.8671 93.4695 23.1865 93.5549 22.1904C93.6638 20.9231 92.3025 20.3591 91.7456 21.6381C90.2355 19.7781 83.9234 26.6024 83.1942 27.494C80.0268 31.3643 76.9136 35.3304 74.3156 39.6102C71.7841 43.7804 69.7065 48.1683 68.0825 52.7678C67.2995 54.9856 66.8227 57.1933 66.3445 59.4872C66.1839 60.2554 64.9839 63.6788 65.4834 64.4448C65.5844 64.4289 65.6858 64.4126 65.7872 64.3966Z" fill="black"/>
<path fill-rule="evenodd" clip-rule="evenodd" d="M315.103 159.308C315.637 158.952 315.637 158.952 315.73 158.28C315.015 158.41 315.015 158.41 315.103 159.308Z" fill="black"/>
<path fill-rule="evenodd" clip-rule="evenodd" d="M52.1279 204.55C52.1346 204.55 52.1396 204.551 52.1435 204.555C52.1321 204.541 52.091 204.498 52.1279 204.55Z" fill="black"/>
<path fill-rule="evenodd" clip-rule="evenodd" d="M51.77 204.911C51.9348 205.267 52.1996 205.356 52.5647 205.176C52.7087 205.382 51.3162 203.893 51.77 204.911Z" fill="black"/>
<path fill-rule="evenodd" clip-rule="evenodd" d="M75.8491 42.3073C75.0136 43.9454 76.0601 42.7539 76.0065 43.286C76.0416 42.9365 76.1866 42.4384 75.8491 42.3073Z" fill="black"/>
<path fill-rule="evenodd" clip-rule="evenodd" d="M211.687 67.661C212.049 70.5984 216.068 69.2091 216.972 67.4324C217.63 66.1388 219.292 61.0274 217.504 59.9476C216.178 59.1472 215.895 62.5971 215.568 63.3678C215.02 64.6585 214.592 63.7439 213.375 64.075C212.031 64.4405 211.538 66.443 211.687 67.661Z" fill="black"/>
<path fill-rule="evenodd" clip-rule="evenodd" d="M207.297 62.2847C208.733 62.6038 210.141 62.4393 211.161 61.3049C211.727 60.6767 212.478 59.4307 211.461 58.8228C210.539 58.2722 209.494 59.5615 208.523 59.2949C207.202 58.9323 207.882 57.5164 207.429 56.5813C205.764 57.5398 204.836 61.7381 207.297 62.2847Z" fill="black"/>
<path fill-rule="evenodd" clip-rule="evenodd" d="M208.786 69.7015C207.402 69.6987 207.39 71.4017 208.113 72.1316C208.805 72.8299 210.554 73.5368 211.491 72.9937C213.341 71.9217 209.907 69.8121 208.786 69.7015Z" fill="black"/>
<path fill-rule="evenodd" clip-rule="evenodd" d="M128.221 137.423C128.517 137.566 129.388 138.305 129.755 137.971C129.237 137.449 128.719 136.927 128.2 136.405C127.914 136.719 127.717 137.178 128.221 137.423Z" fill="black"/>
<path fill-rule="evenodd" clip-rule="evenodd" d="M121.678 62.7096C121.53 62.8195 121.383 62.929 121.236 63.0386C121.733 63.4523 121.72 63.5753 122.221 63.1836C122.072 62.9879 121.891 62.8301 121.678 62.7096Z" fill="black"/>
<path fill-rule="evenodd" clip-rule="evenodd" d="M215.522 160.165C215.244 159.665 214.718 160.587 214.363 160.737C213.784 160.98 213.309 159.69 213.475 161.236C212.168 160.638 211.374 162.011 210.531 162.727C209.339 163.738 207.882 164.286 207.087 165.722C210.828 166.597 214.938 163.372 217.728 161.254C218.183 160.908 220.458 159.162 218.916 158.994C218.285 158.925 215.99 161.005 215.522 160.165Z" fill="black"/>
<path fill-rule="evenodd" clip-rule="evenodd" d="M214.413 157.137C215.146 156.559 213.565 156.507 213.315 156.446C213.337 156.905 213.358 157.364 213.379 157.823C213.733 157.608 214.078 157.379 214.413 157.137Z" fill="black"/>
<path fill-rule="evenodd" clip-rule="evenodd" d="M211.66 159.062C211.879 158.925 212.49 158.498 212.074 158.179C211.699 158.418 211.43 158.808 211.372 159.253C211.468 159.189 211.564 159.125 211.66 159.062Z" fill="black"/>
<path fill-rule="evenodd" clip-rule="evenodd" d="M151.073 121.837C150.605 122.021 150.395 122.311 150.444 122.709C151.164 122.562 151.026 121.882 151.073 121.837Z" fill="black"/>
</svg>
