<?xml version="1.0" standalone="no"?>
<!DOCTYPE svg PUBLIC "-//W3C//DTD SVG 20010904//EN"
 "http://www.w3.org/TR/2001/REC-SVG-20010904/DTD/svg10.dtd">
<svg version="1.0" xmlns="http://www.w3.org/2000/svg"
 width="916.000000pt" height="916.000000pt" viewBox="0 0 916.000000 916.000000"
 preserveAspectRatio="xMidYMid meet">
<metadata>
Created by potrace 1.14, written by Peter Selinger 2001-2017
</metadata>
<g transform="translate(0.000000,916.000000) scale(0.100000,-0.100000)"
fill="#000000" stroke="none">
<path d="M3353 9082 c-40 -42 -128 -134 -195 -203 -68 -70 -217 -225 -333
-344 -115 -120 -250 -260 -300 -311 -49 -51 -175 -181 -280 -289 -104 -109
-219 -228 -255 -265 -36 -37 -166 -172 -290 -300 -124 -128 -261 -270 -305
-316 -44 -45 -172 -178 -285 -294 -113 -117 -245 -254 -295 -305 -226 -234
-209 -212 -206 -262 1 -14 10 -24 29 -30 15 -5 609 -8 1335 -8 l1307 1 16 22
c9 13 23 30 33 40 10 9 57 64 106 122 49 58 92 107 95 110 3 3 27 32 54 65 27
33 54 65 60 70 7 6 29 32 51 59 22 27 53 63 69 80 16 17 41 47 55 66 14 19 31
40 37 45 7 6 82 93 169 195 141 166 204 240 262 306 10 12 34 41 53 64 39 47
43 52 115 135 98 113 109 122 136 101 8 -6 57 -60 109 -121 52 -60 99 -115
105 -121 5 -7 24 -29 41 -50 18 -22 45 -53 60 -69 16 -17 45 -51 65 -75 21
-25 50 -59 65 -77 16 -18 45 -51 64 -74 19 -23 43 -51 54 -63 10 -11 37 -43
60 -70 22 -27 46 -54 52 -60 5 -6 37 -42 69 -81 33 -38 65 -76 72 -83 6 -7 29
-34 50 -60 21 -25 47 -56 58 -67 11 -11 41 -45 65 -75 25 -30 51 -62 60 -70 8
-8 38 -42 65 -75 55 -66 77 -91 128 -149 l34 -39 1316 0 c1402 0 1347 -2 1347
47 0 34 -31 73 -172 217 -73 75 -212 219 -308 319 -96 100 -217 225 -268 278
-52 53 -173 180 -270 280 -98 101 -228 236 -289 299 -62 63 -113 116 -113 117
0 1 -46 49 -102 107 -93 95 -336 347 -673 697 -66 68 -154 159 -195 201 -41
43 -154 159 -250 259 l-174 182 -1146 0 -1145 -1 -72 -77z"/>
<path d="M543 5247 c-3 -4 -7 -27 -9 -50 -2 -23 -6 -55 -9 -72 -3 -16 -7 -47
-10 -69 -2 -21 -7 -59 -10 -85 -7 -48 -10 -90 -22 -231 -7 -96 -8 -753 0 -845
3 -33 8 -98 12 -145 3 -47 8 -96 10 -110 2 -14 6 -50 10 -80 7 -59 43 -292 50
-325 2 -11 7 -36 10 -55 4 -19 10 -51 15 -70 5 -19 12 -53 16 -75 3 -22 9 -44
13 -50 4 -5 7 -17 6 -25 -1 -8 3 -26 8 -40 8 -23 19 -60 63 -219 18 -67 110
-317 128 -351 8 -14 15 -29 16 -35 4 -30 202 -432 219 -445 3 -3 12 -16 19
-30 13 -27 21 -40 67 -110 16 -25 27 -45 25 -45 -2 0 3 -9 12 -20 42 -50 88
-116 88 -124 0 -5 7 -11 15 -15 8 -3 15 -12 15 -20 0 -8 3 -16 8 -18 4 -1 25
-25 46 -53 22 -27 47 -57 55 -66 9 -8 30 -33 46 -54 62 -79 299 -311 415 -405
30 -25 57 -47 60 -50 3 -3 39 -30 80 -60 41 -30 77 -58 78 -62 2 -5 8 -8 13
-8 5 0 37 -20 72 -43 34 -24 85 -57 112 -72 28 -16 52 -32 55 -35 10 -11 378
-199 391 -200 4 0 28 -10 55 -22 27 -12 55 -23 63 -24 7 -2 18 -7 24 -13 6 -6
20 -11 32 -11 12 0 25 -4 31 -9 12 -11 202 -75 319 -107 6 -2 20 -5 33 -8 12
-3 26 -7 30 -10 5 -3 19 -7 33 -10 13 -3 71 -16 129 -30 108 -25 291 -60 370
-71 25 -3 59 -8 75 -11 17 -2 50 -6 75 -9 25 -3 63 -7 85 -10 163 -19 372 -28
625 -28 195 0 465 8 465 13 0 0 29 3 65 5 80 5 183 16 285 30 17 2 50 7 75 10
25 4 56 9 70 11 14 3 43 7 65 10 22 2 47 7 55 10 8 3 26 7 40 9 48 7 257 54
350 79 8 2 29 7 45 11 17 4 36 12 43 18 6 5 12 7 12 4 0 -12 323 103 435 154
28 13 55 24 62 25 40 7 519 266 543 294 3 3 32 23 65 45 33 21 65 44 72 50 15
12 18 14 108 84 39 30 82 67 98 83 15 15 27 25 27 22 0 -11 243 237 290 296
25 30 50 60 56 65 35 32 224 306 224 325 0 5 4 10 9 10 5 0 14 12 20 27 6 16
29 60 51 98 35 61 91 170 95 185 1 3 9 23 19 45 23 50 97 245 101 265 2 8 10
34 19 58 8 23 13 42 11 42 -3 0 0 12 6 28 6 15 12 34 15 42 2 8 8 33 14 55 6
22 12 49 14 60 2 11 9 44 16 73 13 58 12 61 -19 67 -11 2 -25 6 -30 10 -5 3
-12 1 -16 -4 -3 -5 -15 -8 -28 -5 -12 2 -105 7 -207 9 -102 3 -264 7 -360 10
-96 3 -269 8 -385 11 -115 3 -271 7 -345 9 -415 12 -518 14 -750 20 -140 4
-257 7 -260 7 -25 2 -42 -5 -47 -19 -46 -134 -151 -293 -272 -414 -189 -188
-429 -314 -714 -375 -65 -14 -126 -25 -162 -28 -22 -2 -40 -5 -40 -6 0 -4
-112 -10 -230 -11 -123 -2 -272 6 -319 16 -19 4 -56 10 -121 20 -31 5 -177 44
-200 54 -11 5 -51 21 -90 36 -209 81 -421 232 -557 398 -24 28 -49 56 -55 60
-7 4 -13 14 -13 22 0 7 -4 15 -8 17 -46 18 -228 397 -248 513 -2 11 -10 45
-18 75 -15 55 -20 78 -31 155 -3 23 -8 52 -10 65 -3 14 -8 97 -11 185 l-7 161
2788 -1 c1533 0 2791 3 2797 6 18 11 3 1086 -17 1237 -4 23 -8 61 -10 85 -8
80 -15 142 -19 162 -3 11 -5 29 -5 40 l-1 21 -4041 0 c-2222 0 -4043 -4 -4046
-9z"/>
</g>
</svg>
